<svg width="501" height="573" viewBox="0 0 501 573" fill="none" xmlns="http://www.w3.org/2000/svg">
<g clip-path="url(#clip0_21_116)">
<path d="M240.426 537.544L239.788 523.168C239.721 523.133 239.655 523.098 239.588 523.063C232.747 519.468 224.905 525.975 227.091 533.396C229.147 540.379 230.528 547.906 234.292 554.017C236.515 557.567 239.508 560.57 243.049 562.804C246.589 565.038 250.586 566.446 254.744 566.923L263.436 572.252C264.629 565.594 264.366 558.756 262.665 552.209C260.965 545.663 257.867 539.563 253.586 534.33C251.155 531.419 248.367 528.826 245.289 526.611C243.207 532.108 240.426 537.544 240.426 537.544Z" fill="#E6E4BB"/>
<path d="M162.603 391.654C145.868 374.372 121.616 364.461 96.067 364.461L95.0815 364.464C78.2528 364.47 61.7244 360.001 47.1867 351.512L45.6739 350.63L46.8924 349.372C53.4887 342.539 58.9966 334.73 63.2232 326.22C60.2214 329.023 56.6411 331.13 52.7358 332.393C48.8305 333.657 44.6956 334.045 40.6238 333.531C36.3249 333.018 32.198 331.536 28.5524 329.198C24.9068 326.86 21.8373 323.726 19.5742 320.03C10.6444 305.522 7.62939e-06 284.936 7.62939e-06 269.254C0.0139082 255.998 2.78569 242.891 8.13869 230.767C13.4917 218.643 21.3085 207.769 31.0908 198.838C37.2838 193.247 42.2305 186.411 45.6082 178.777C48.986 171.142 50.719 162.881 50.6943 154.531L50.6894 153.342C50.6877 142.349 52.0293 131.397 54.6843 120.73L54.9539 119.653L56.0607 119.692C63.1979 119.935 70.339 119.336 77.3363 117.907C70.7728 117.101 64.3519 115.391 58.2557 112.825L57.065 112.343L57.4691 111.121C85.3237 93.8514 148.2 102.795 184.695 19.1844C214.287 -48.612 318.699 79.3673 318.699 153.343C318.699 160.891 311.239 170.866 316.824 175.855C377.195 229.787 335.54 264.418 322.406 299.266C319.29 307.534 326.047 316.611 326.047 325.556C326.047 327.074 326.008 328.641 325.932 330.213L325.816 332.63L323.803 331.289C319.821 328.676 316.129 325.645 312.792 322.245C316.254 330.223 317.886 338.877 317.567 347.57C317.248 356.262 314.987 364.773 310.949 372.475C304.623 384.432 298.502 392.992 292.757 397.916C274.355 413.685 250.632 421.82 226.439 420.656C202.246 419.492 179.41 409.117 162.603 391.654Z" fill="#E6E4BB"/>
<path d="M263.677 571.543C264.088 571.542 264.485 571.393 264.796 571.123C265.106 570.853 265.309 570.48 265.367 570.072C265.44 569.561 272.556 518.172 266.165 449.874C260.263 386.8 241.31 295.95 184.532 221.337C184.396 221.157 184.226 221.007 184.032 220.893C183.838 220.78 183.624 220.706 183.401 220.676C183.178 220.646 182.952 220.66 182.734 220.717C182.517 220.774 182.313 220.874 182.135 221.011C181.956 221.147 181.806 221.317 181.693 221.512C181.58 221.706 181.506 221.921 181.476 222.144C181.446 222.368 181.461 222.594 181.518 222.812C181.576 223.029 181.676 223.233 181.812 223.412C238.099 297.381 256.9 387.564 262.76 450.194C269.114 518.094 262.054 569.082 261.982 569.589C261.947 569.832 261.965 570.08 262.035 570.315C262.104 570.55 262.223 570.768 262.384 570.953C262.545 571.138 262.743 571.287 262.966 571.389C263.189 571.49 263.432 571.543 263.677 571.543Z" fill="#A55B66"/>
<path d="M217.343 326.582C217.704 326.582 218.056 326.468 218.349 326.256C218.641 326.043 218.859 325.744 218.97 325.4C219.082 325.056 219.082 324.685 218.971 324.341C218.859 323.997 218.642 323.697 218.35 323.485C218.144 323.335 197.373 308.349 166.321 296.964C137.616 286.441 93.9652 276.901 49.0277 291.222C48.8135 291.29 48.6146 291.399 48.4427 291.544C48.2707 291.689 48.129 291.867 48.0255 292.066C47.9221 292.266 47.8591 292.484 47.84 292.709C47.8209 292.933 47.8462 293.159 47.9143 293.373C47.9825 293.588 48.0922 293.787 48.2372 293.959C48.3822 294.131 48.5597 294.272 48.7594 294.375C48.9591 294.479 49.1773 294.541 49.4012 294.56C49.6252 294.579 49.8507 294.553 50.0648 294.485C94.0815 280.458 136.941 289.84 165.145 300.18C195.754 311.402 216.137 326.108 216.339 326.255C216.631 326.468 216.982 326.582 217.343 326.582Z" fill="#A55B66"/>
<path d="M295.605 131.401C295.631 131.04 295.542 130.68 295.352 130.373C295.161 130.066 294.879 129.827 294.544 129.69C294.21 129.554 293.84 129.527 293.49 129.614C293.139 129.7 292.825 129.896 292.592 130.172C292.428 130.368 276.005 150.033 262.428 180.226C249.879 208.137 237.233 251.045 248.262 296.957C248.368 297.399 248.645 297.78 249.032 298.017C249.418 298.254 249.883 298.328 250.324 298.222C250.765 298.115 251.146 297.838 251.383 297.451C251.619 297.064 251.693 296.598 251.587 296.157C240.785 251.185 253.217 209.056 265.547 181.632C278.929 151.87 295.045 132.571 295.206 132.38C295.439 132.104 295.579 131.761 295.605 131.401Z" fill="#A55B66"/>
<path d="M293.29 219.69C294.733 231.346 302.799 240.956 314.528 240.956C320.16 240.956 325.562 238.715 329.545 234.727C333.528 230.739 335.765 225.33 335.765 219.69C335.765 207.945 326.207 199.51 314.528 198.424C302.136 197.272 291.438 204.726 293.29 219.69Z" fill="black"/>
<path d="M324.364 562.176L332.451 562.176L336.299 530.939L324.362 530.94L324.364 562.176Z" fill="#FFB6B6"/>
<path d="M324.08 570.624L348.95 570.623V570.308C348.949 567.738 347.929 565.272 346.114 563.455C344.299 561.637 341.837 560.616 339.27 560.615L334.726 557.165L326.25 560.616L324.079 560.616L324.08 570.624Z" fill="black"/>
<path d="M292.508 562.176L300.595 562.176L304.443 530.939L292.506 530.94L292.508 562.176Z" fill="#FFB6B6"/>
<path d="M292.224 570.624L317.093 570.623V570.308C317.093 567.738 316.073 565.272 314.258 563.455C312.443 561.637 309.981 560.616 307.414 560.615L302.87 557.165L294.394 560.616L292.223 560.616L292.224 570.624Z" fill="black"/>
<path d="M352.195 366.538L357.913 386.168L351.177 469.305C351.177 469.305 354.645 474.503 352.195 474.503C349.744 474.503 346.602 475.656 348.582 478.76C350.561 481.864 343.795 493.009 343.795 493.009L334.225 552.205L322.03 552.025C322.03 552.025 315.831 548.566 319.31 545.069C322.789 541.572 325.24 541.572 321.972 538.3C318.705 535.029 318.705 536.014 318.705 533.477C318.705 530.939 315.432 499.929 323.195 488.034L320.855 439.535L315.346 487.107L304.002 550.569L292.255 550.472C292.255 550.472 286.829 545.235 286.839 541.359C286.849 537.482 290.191 537.16 287.703 534.868C285.215 532.575 285.215 497.353 292.567 477.775C292.567 477.775 296.725 466.836 292.557 463.088C288.389 459.339 292.552 455.05 292.552 455.05C292.552 455.05 299.154 452.661 292.546 445.776C285.939 438.891 292.511 390.199 292.511 390.199C292.511 390.199 285.288 370.544 292.603 362.816C299.918 355.087 352.195 366.538 352.195 366.538Z" fill="black"/>
<path d="M250.358 400.359L260.559 375.672L268.597 380.143L263.743 405.256C264.229 406.847 264.262 408.542 263.839 410.151C263.416 411.76 262.553 413.218 261.347 414.363C260.141 415.508 258.64 416.293 257.013 416.63C255.386 416.968 253.698 416.844 252.137 416.273C250.576 415.702 249.206 414.706 248.179 413.398C247.153 412.09 246.511 410.521 246.326 408.867C246.141 407.214 246.421 405.542 247.133 404.038C247.845 402.535 248.962 401.261 250.358 400.359Z" fill="#FFB6B6"/>
<path d="M421.543 205.146L406.02 226.876L399.204 220.698L409.614 197.339C409.5 195.679 409.852 194.021 410.628 192.55C411.404 191.079 412.575 189.854 414.008 189.012C415.442 188.171 417.081 187.747 418.742 187.788C420.403 187.828 422.02 188.332 423.411 189.242C424.802 190.152 425.912 191.433 426.615 192.94C427.319 194.447 427.589 196.121 427.395 197.773C427.201 199.426 426.55 200.991 425.517 202.294C424.483 203.596 423.106 204.584 421.543 205.146Z" fill="#FFB6B6"/>
<path d="M353.735 368.551C363.803 384.188 313.195 404.032 293.777 396.065C290.377 394.67 278.68 390.063 286.675 383.674C294.67 377.286 285.748 376.387 285.537 372.228C285.396 369.448 287.546 363.349 285.303 363.611C283.06 363.872 280.435 360.027 285.32 358.373C290.205 356.718 285.372 355.209 285.415 353.639C285.882 336.499 299.015 309.237 299.015 309.237L275.351 369.809C275.351 369.809 275.526 380.288 272.508 377.086C269.49 373.884 269.71 384.248 269.71 384.248C269.71 384.248 265.222 387.384 267.803 389.129C270.383 390.874 265.025 396.24 265.025 396.24L252.522 395.346C252.522 395.346 252.718 386.045 254.852 383.989C256.987 381.932 255.939 378.696 255.939 378.696C255.939 378.696 261.497 373.769 257.77 369.769C252.978 364.624 270.451 277.729 276.481 278.589C277.333 274.435 279.317 270.597 282.211 267.5C285.106 264.404 288.799 262.169 292.883 261.043L306.387 257.32L308.785 247.794H327.799L331.111 254.054L345.567 260.586C348.29 256.739 350.325 252.685 361.475 251.371C361.475 251.371 391.52 223.998 390.053 221.86C388.586 219.723 393.243 214.719 393.243 214.719C393.243 214.719 397.221 213.415 394.977 212.72C392.732 212.024 396.974 210.414 396.974 210.414C396.974 210.414 400.904 209.381 399.05 208.019C397.197 206.658 405.235 205.764 405.235 205.764L415.663 214.284L413.556 217.863C413.556 217.863 414.841 222.736 413.163 220.957C411.486 219.178 411.171 224.34 411.171 224.34C411.171 224.34 410.314 229.994 405.235 231.697C400.156 233.4 396.304 249.582 396.304 249.582C384.326 265.178 370.189 277.343 353.437 285.352C359.966 292.856 353.735 368.551 353.735 368.551Z" fill="#A8A8A8"/>
<path d="M316.875 242.219C327.276 242.219 335.708 233.776 335.708 223.361C335.708 212.946 327.276 204.503 316.875 204.503C306.474 204.503 298.043 212.946 298.043 223.361C298.043 233.776 306.474 242.219 316.875 242.219Z" fill="#FFB6B6"/>
<path d="M297.375 225.415C297.971 229.513 301.459 235.23 300.642 235.23C299.825 235.23 294.017 218.338 299.825 217.236C304.037 216.437 304.979 217.138 308.916 215.429L308.361 215.952C310.966 217.85 314.593 216.68 317.566 215.445C320.548 214.218 324.166 213.049 326.78 214.938C328.422 216.124 329.116 218.185 330.137 219.935C331.158 221.694 333.045 223.354 334.989 222.814C336.549 222.381 337.448 220.631 337.44 219.011C337.431 217.392 335.325 215.851 336.035 214.398C338.137 210.092 336.246 207.157 331.665 205.131C329.998 204.878 328.332 204.619 326.666 204.354C327.539 203.143 328.597 202.078 329.802 201.197C329.293 199.89 328.413 198.761 327.27 197.95C325.939 197.156 324.289 197.214 322.745 197.295C319.298 197.475 315.854 197.655 312.412 197.835C309.864 197.966 307.225 198.122 304.947 199.291C302.104 200.755 300.242 203.61 298.886 206.513C295.847 213.04 296.329 218.291 297.375 225.415Z" fill="black"/>
<path d="M219.033 572.749L404.247 573C404.505 573 404.752 572.897 404.935 572.715C405.117 572.532 405.22 572.284 405.22 572.026C405.22 571.768 405.117 571.52 404.935 571.338C404.752 571.155 404.505 571.052 404.247 571.052L219.033 570.801C218.775 570.801 218.527 570.904 218.345 571.086C218.163 571.269 218.06 571.516 218.06 571.775C218.06 572.033 218.163 572.281 218.345 572.463C218.527 572.646 218.775 572.749 219.033 572.749Z" fill="#E6E4BB"/>
<path d="M152.045 487.856C152.387 485.506 149.929 483.203 146.555 482.712C143.182 482.22 140.17 483.727 139.829 486.076C139.488 488.426 141.946 490.73 145.319 491.221C148.692 491.713 151.704 490.206 152.045 487.856Z" fill="#E6E4BB"/>
<path d="M192.21 483.932C192.551 481.582 190.093 479.279 186.72 478.787C183.346 478.296 180.335 479.802 179.993 482.152C179.652 484.502 182.11 486.805 185.483 487.297C188.857 487.788 191.868 486.282 192.21 483.932Z" fill="#A55B66"/>
<path d="M141.047 455.297C141.389 452.947 138.931 450.643 135.557 450.152C132.184 449.66 129.172 451.167 128.831 453.517C128.489 455.867 130.947 458.17 134.321 458.662C137.694 459.153 140.706 457.646 141.047 455.297Z" fill="#FF6584"/>
<path d="M123.595 441.96C123.611 439.802 122.409 438.044 120.911 438.033C119.412 438.022 118.184 439.761 118.167 441.919C118.151 444.076 119.353 445.834 120.852 445.845C122.35 445.857 123.578 444.117 123.595 441.96Z" fill="#E6E4BB"/>
<path d="M117.676 417.118C117.693 414.961 116.491 413.203 114.992 413.192C113.493 413.18 112.265 414.92 112.249 417.077C112.233 419.234 113.434 420.992 114.933 421.004C116.432 421.015 117.66 419.276 117.676 417.118Z" fill="#A55B66"/>
<path d="M163.7 460.837C163.716 458.68 162.515 456.922 161.016 456.911C159.517 456.899 158.289 458.639 158.273 460.796C158.257 462.954 159.458 464.712 160.957 464.723C162.456 464.734 163.684 462.995 163.7 460.837Z" fill="#E6E4BB"/>
<path d="M144.291 470.541C144.307 468.384 143.106 466.626 141.607 466.615C140.108 466.603 138.88 468.343 138.864 470.5C138.847 472.657 140.049 474.415 141.548 474.427C143.047 474.438 144.275 472.699 144.291 470.541Z" fill="#FF6584"/>
<path d="M171.309 488.476C171.326 486.319 170.124 484.561 168.625 484.55C167.126 484.538 165.898 486.278 165.882 488.435C165.866 490.592 167.067 492.35 168.566 492.362C170.065 492.373 171.293 490.633 171.309 488.476Z" fill="#A55B66"/>
<path d="M460.804 361.897C461.145 359.547 458.688 357.244 455.314 356.753C451.941 356.261 448.929 357.768 448.588 360.117C448.246 362.467 450.704 364.771 454.078 365.262C457.451 365.754 460.463 364.247 460.804 361.897Z" fill="#E6E4BB"/>
<path d="M500.968 357.973C501.31 355.623 498.852 353.32 495.478 352.828C492.105 352.337 489.094 353.843 488.752 356.193C488.411 358.543 490.869 360.846 494.242 361.338C497.615 361.829 500.627 360.323 500.968 357.973Z" fill="#A55B66"/>
<path d="M449.805 329.338C450.147 326.988 447.689 324.684 444.315 324.193C440.942 323.701 437.93 325.208 437.589 327.558C437.247 329.908 439.705 332.211 443.079 332.703C446.452 333.194 449.464 331.687 449.805 329.338Z" fill="#FF6584"/>
<path d="M432.353 316.001C432.37 313.843 431.168 312.085 429.669 312.074C428.17 312.063 426.942 313.802 426.926 315.959C426.91 318.117 428.111 319.875 429.61 319.886C431.109 319.897 432.337 318.158 432.353 316.001Z" fill="#E6E4BB"/>
<path d="M426.435 291.159C426.451 289.002 425.249 287.244 423.751 287.233C422.252 287.221 421.024 288.961 421.008 291.118C420.991 293.275 422.193 295.033 423.692 295.045C425.19 295.056 426.419 293.316 426.435 291.159Z" fill="#A55B66"/>
<path d="M472.459 334.878C472.475 332.721 471.273 330.963 469.775 330.952C468.276 330.94 467.048 332.68 467.032 334.837C467.015 336.995 468.217 338.753 469.716 338.764C471.214 338.775 472.443 337.036 472.459 334.878Z" fill="#E6E4BB"/>
<path d="M453.05 344.582C453.066 342.425 451.864 340.667 450.366 340.656C448.867 340.644 447.639 342.384 447.622 344.541C447.606 346.698 448.808 348.456 450.307 348.468C451.805 348.479 453.033 346.739 453.05 344.582Z" fill="#FF6584"/>
<path d="M480.068 362.517C480.084 360.36 478.882 358.602 477.384 358.59C475.885 358.579 474.657 360.319 474.641 362.476C474.624 364.633 475.826 366.391 477.325 366.403C478.823 366.414 480.052 364.674 480.068 362.517Z" fill="#A55B66"/>
<path d="M311.326 128.791C311.667 126.441 309.209 124.138 305.836 123.647C302.462 123.155 299.451 124.662 299.109 127.012C298.768 129.361 301.226 131.665 304.599 132.156C307.973 132.648 310.984 131.141 311.326 128.791Z" fill="#FFB0B1"/>
<path d="M351.49 124.867C351.831 122.517 349.374 120.214 346 119.722C342.627 119.231 339.615 120.737 339.274 123.087C338.932 125.437 341.39 127.74 344.764 128.232C348.137 128.723 351.149 127.217 351.49 124.867Z" fill="#A55B66"/>
<path d="M300.327 96.2316C300.669 93.8817 298.211 91.5783 294.838 91.0869C291.464 90.5954 288.453 92.1019 288.111 94.4518C287.77 96.8016 290.228 99.105 293.601 99.5965C296.975 100.088 299.986 98.5814 300.327 96.2316Z" fill="#FF6584"/>
<path d="M282.875 82.8946C282.891 80.7374 281.69 78.9793 280.191 78.968C278.692 78.9566 277.464 80.6963 277.448 82.8535C277.431 85.0108 278.633 86.7688 280.132 86.7802C281.631 86.7915 282.859 85.0519 282.875 82.8946Z" fill="#E6E4BB"/>
<path d="M276.956 58.0532C276.973 55.8959 275.771 54.1379 274.272 54.1266C272.774 54.1152 271.545 55.8548 271.529 58.0121C271.513 60.1694 272.715 61.9274 274.213 61.9388C275.712 61.9501 276.94 60.2105 276.956 58.0532Z" fill="#A55B66"/>
<path d="M322.98 101.772C322.997 99.6151 321.795 97.8571 320.296 97.8457C318.798 97.8344 317.569 99.574 317.553 101.731C317.537 103.889 318.739 105.647 320.237 105.658C321.736 105.669 322.964 103.93 322.98 101.772Z" fill="#E6E4BB"/>
<path d="M303.571 111.476C303.588 109.319 302.386 107.561 300.887 107.55C299.388 107.538 298.16 109.278 298.144 111.435C298.128 113.592 299.329 115.35 300.828 115.362C302.327 115.373 303.555 113.633 303.571 111.476Z" fill="#FF6584"/>
<path d="M330.59 129.411C330.606 127.254 329.404 125.496 327.905 125.485C326.407 125.473 325.179 127.213 325.162 129.37C325.146 131.527 326.348 133.285 327.846 133.297C329.345 133.308 330.573 131.568 330.59 129.411Z" fill="#A55B66"/>
</g>
<defs>
<clipPath id="clip0_21_116">
<rect width="501" height="573" fill="white"/>
</clipPath>
</defs>
</svg>
