<svg width="663" height="470" viewBox="0 0 663 470" fill="none" xmlns="http://www.w3.org/2000/svg">
<g clip-path="url(#clip0_17_1227)">
<path opacity="0.1" d="M220.42 469.736C252.708 469.736 278.882 465.529 278.882 460.339C278.882 455.149 252.708 450.942 220.42 450.942C188.132 450.942 161.958 455.149 161.958 460.339C161.958 465.529 188.132 469.736 220.42 469.736Z" fill="#373E11"/>
<path opacity="0.1" d="M538.21 470C578.5 470 611.162 465.793 611.162 460.603C611.162 455.413 578.5 451.206 538.21 451.206C497.921 451.206 465.259 455.413 465.259 460.603C465.259 465.793 497.921 470 538.21 470Z" fill="#373E11"/>
<path opacity="0.1" d="M8.30368 203.074H69.1955V286.135H12.7615C12.6115 286.987 12.4675 287.846 12.3115 288.705H69.1955V355.691C69.0935 355.661 69.0035 355.625 68.9075 355.589C67.2995 354.953 65.7036 354.28 64.1077 353.56L63.0877 353.097C61.4878 352.341 59.8878 351.54 58.2879 350.696C57.7299 350.401 57.1719 350.095 56.6199 349.783C47.7377 344.804 39.6688 338.494 32.6928 331.073C32.4888 330.875 32.2968 330.665 32.0928 330.472C31.1209 329.416 30.1669 328.347 29.2429 327.254L28.223 326.053C27.131 324.714 26.075 323.339 25.0491 321.946C24.8991 321.742 24.7551 321.538 24.5991 321.345C20.4265 315.555 16.962 309.286 14.2795 302.671C14.1955 302.473 14.1235 302.257 14.0455 302.071C13.2215 299.949 12.4915 297.808 11.8556 295.646C11.5796 294.739 11.3156 293.845 11.0876 292.902C11.0036 292.626 10.9316 292.355 10.8656 292.085C7.45771 278.773 7.05573 264.945 7.05573 251.212C7.05573 249.609 7.05573 248 7.05573 246.409C7.05573 240.854 7.12172 235.264 7.21772 229.68C7.21772 228.233 7.27772 226.792 7.30771 225.339C7.39171 221.652 7.51171 217.965 7.6677 214.278C7.7037 213.252 7.7517 212.231 7.8057 211.21C7.8057 210.622 7.8357 210.033 7.8957 209.445C8.03969 207.307 8.15969 205.187 8.30368 203.074Z" fill="#373E11"/>
<path opacity="0.1" d="M69.1955 110.592H35.7947C41.2242 102.087 47.1565 93.914 53.56 86.1172C58.5218 80.0166 63.7597 74.0721 69.1955 68.3438V110.592Z" fill="#373E11"/>
<path opacity="0.1" d="M69.1955 113.162V200.504H8.49567C8.49567 200.252 8.53766 199.994 8.55566 199.741C8.60966 199.051 8.66366 198.36 8.72366 197.676C8.78965 196.871 8.86165 196.061 8.93965 195.274C9.01765 194.487 9.10164 193.527 9.19164 192.656C9.28164 191.785 9.36563 190.903 9.46763 190.032C9.56963 189.161 9.65962 188.291 9.76762 187.426C9.87562 186.561 9.97161 185.685 10.0856 184.82C10.1756 184.099 10.2716 183.385 10.3676 182.664C10.5056 181.65 10.6496 180.629 10.8056 179.62C10.8056 179.47 10.8476 179.314 10.8716 179.17C11.9667 171.785 13.4588 164.465 15.3414 157.241C17.3121 149.663 19.8286 142.238 22.8711 135.024C26.1048 127.478 29.891 120.18 34.1987 113.192L69.1955 113.162Z" fill="#373E11"/>
<path opacity="0.1" d="M83.733 203.068V286.135H213.79V203.068H83.733ZM83.733 288.699V360.033C84.4769 360.189 85.2149 360.339 85.9469 360.465C86.9429 360.657 87.9328 360.831 88.9468 360.981C89.1388 361.011 89.3368 361.042 89.5468 361.06C89.9427 361.126 90.3507 361.18 90.7467 361.234C91.7487 361.372 92.7446 361.486 93.7466 361.576C94.2206 361.624 94.7006 361.666 95.1806 361.702L96.3385 361.792C96.9685 361.84 97.5925 361.876 98.2104 361.894C98.5944 361.894 98.9784 361.93 99.3744 361.942C99.6744 361.942 99.9744 361.942 100.286 361.942C100.598 361.942 101.042 361.942 101.42 361.942C101.936 361.942 102.452 361.942 102.962 361.942H103.652C104.168 361.942 104.684 361.942 105.194 361.894H105.23C105.584 361.894 105.944 361.894 106.304 361.846C106.404 361.852 106.504 361.852 106.604 361.846C106.904 361.846 107.204 361.846 107.492 361.804H107.702L109.712 361.648C110.372 361.588 111.038 361.51 111.71 361.438L113.078 361.276C118.643 360.495 124.147 359.323 129.547 357.769C141.679 354.382 153.546 349.645 165.672 346.174C181.349 341.701 198.671 339.503 213.82 344.973V288.699H83.733ZM213.79 110.592V0.00603556C199.551 -0.148356 185.351 1.51839 171.534 4.96579C138.601 13.2461 109.052 31.2057 83.733 54.143V110.586H90.2607V113.15H83.733V200.504H213.79V113.156H117.062V110.592H213.79ZM380.842 73.2375C372.695 72.9493 364.595 70.3673 357.269 66.3803C343.26 58.7545 332.07 46.9796 319.566 37.0421C293.587 16.3444 261.369 3.85495 228.316 0.756604V110.592H413.979L414.441 110.105L380.842 73.2375ZM397.756 70.2352L415.689 89.9301V65.0713C409.683 65.8159 404.421 67.5872 397.78 70.2112L397.756 70.2352ZM415.689 377.746V288.699H377.476C377.374 288.32 377.272 287.936 377.152 287.552C377.266 287.936 377.362 288.32 377.47 288.699H228.34V353.097C229.756 354.148 231.154 355.253 232.54 356.376C234.034 357.577 235.509 358.844 236.991 360.087L238.485 361.324C239.199 361.924 239.919 362.525 240.645 363.089C242.085 364.258 243.539 365.411 245.007 366.548C245.733 367.148 246.477 367.689 247.215 368.253C258.931 377.218 271.29 385.307 284.192 392.457C287.084 394.059 290.002 395.622 292.945 397.147C294.907 398.15 296.881 399.146 298.861 400.113C301.837 401.566 304.837 402.967 307.861 404.316C335.74 416.841 365.219 425.435 395.458 429.854C402.173 430.846 408.915 431.627 415.683 432.195V377.74H416.283L415.689 377.746ZM228.34 113.156V200.504H415.713V113.156H228.34ZM228.34 203.068V286.135H415.713V203.068H228.34ZM430.256 64.9632V92.6922L453.146 67.5572C445.562 66.3323 437.932 65.4576 430.256 64.9332V64.9632ZM430.256 203.098V286.135H612.5V203.068L430.256 203.098ZM611.834 384.339L612.476 288.699H430.256V433.15C441.995 433.644 453.752 433.503 465.475 432.73H465.679C471.279 432.378 476.853 431.865 482.401 431.193H482.527C512.124 427.745 541.064 420.017 568.443 408.249M647.641 216.746C646.957 215.131 646.243 213.528 645.517 211.943C644.161 208.94 642.727 206.022 641.251 203.104H627.031V286.135H662.982C662.964 262.621 657.018 238.603 647.659 216.716L647.641 216.746ZM627.031 288.729V370.991C637.159 361.276 645.715 350.161 651.876 337.456C659.286 322.156 662.676 305.59 662.952 288.717L627.031 288.729ZM627.031 178.894V200.51H639.919C636.02 193.069 631.724 185.843 627.049 178.864L627.031 178.894ZM503.436 81.2596C502.488 80.8993 501.54 80.533 500.586 80.1788C490.525 76.4603 480.244 73.3681 469.801 70.9198L434.774 109.391L434.102 110.105L434.552 110.598H559.216C541.854 98.637 523.136 88.7788 503.454 81.2296L503.436 81.2596ZM562.87 113.186H432.812L430.256 115.528V200.504H452.66H452.696H612.524V159.343C598.066 141.843 581.378 126.315 562.888 113.156L562.87 113.186Z" fill="#373E11"/>
<path opacity="0.1" d="M69.1955 157.217V200.504H8.49567C8.49567 200.252 8.53766 199.993 8.55566 199.741C8.60966 199.051 8.66366 198.36 8.72366 197.676C8.78965 196.871 8.86165 196.06 8.93965 195.274C9.01765 194.487 9.10164 193.527 9.19164 192.656C9.28164 191.785 9.36563 190.903 9.46763 190.032C9.56963 189.161 9.65962 188.291 9.76762 187.426C9.87562 186.561 9.97161 185.685 10.0856 184.82C10.1756 184.099 10.2716 183.385 10.3676 182.664C10.5056 181.65 10.6496 180.629 10.8056 179.62C10.8056 179.47 10.8476 179.314 10.8716 179.17C11.9667 171.785 13.4588 164.465 15.3414 157.241L69.1955 157.217Z" fill="#373E11"/>
<path opacity="0.1" d="M8.30368 203.074H69.1955V286.135H12.7615C12.6115 286.987 12.4675 287.846 12.3115 288.705H69.1955V355.691C69.0935 355.661 69.0035 355.625 68.9075 355.589C67.2995 354.953 65.7036 354.28 64.1077 353.56L63.0877 353.097C61.4878 352.341 59.8878 351.54 58.2879 350.696C57.7299 350.401 57.1719 350.095 56.6199 349.783C47.7377 344.804 39.6688 338.494 32.6928 331.073C32.4888 330.875 32.2968 330.665 32.0928 330.472C31.1209 329.416 30.1669 328.347 29.2429 327.254L28.223 326.053C27.131 324.714 26.075 323.339 25.0491 321.946C24.8991 321.742 24.7551 321.538 24.5991 321.345C20.4265 315.555 16.962 309.286 14.2795 302.671C14.1955 302.473 14.1235 302.257 14.0455 302.071C13.2215 299.949 12.4915 297.808 11.8556 295.646C11.5796 294.739 11.3156 293.845 11.0876 292.902C11.0036 292.626 10.9316 292.355 10.8656 292.085C7.45771 278.773 7.05573 264.945 7.05573 251.212C7.05573 249.609 7.05573 248 7.05573 246.409C7.05573 240.854 7.12172 235.264 7.21772 229.68C7.21772 228.233 7.27772 226.792 7.30771 225.339C7.39171 221.652 7.51171 217.965 7.6677 214.278C7.7037 213.252 7.7517 212.231 7.8057 211.21C7.8057 210.622 7.8357 210.033 7.8957 209.445C8.03969 207.307 8.15969 205.187 8.30368 203.074Z" fill="#373E11"/>
<path opacity="0.1" d="M129.517 125.663V200.504H83.733V125.663H90.2607V100.324H117.056V125.663H129.517Z" fill="#373E11"/>
<path opacity="0.1" d="M129.517 203.068H83.739V286.129H129.517V203.068Z" fill="#373E11"/>
<path opacity="0.1" d="M83.733 288.705H129.517V357.757C124.117 359.31 118.613 360.48 113.048 361.258L111.68 361.426C111.008 361.504 110.342 361.57 109.682 361.636C109.022 361.702 108.338 361.75 107.672 361.792H107.462C107.174 361.792 106.862 361.828 106.58 361.834H106.274C105.914 361.834 105.554 361.87 105.194 361.882C104.684 361.912 104.174 361.918 103.652 361.924C103.43 361.924 103.22 361.924 102.998 361.924C102.482 361.924 101.972 361.924 101.456 361.924H100.322C100.016 361.924 99.7224 361.924 99.4044 361.924L98.2464 361.882C97.6465 361.882 96.9985 361.816 96.3745 361.774L95.2226 361.69L93.7886 361.558C92.7806 361.468 91.7787 361.354 90.7887 361.216L89.5888 361.047L88.9888 360.963C87.9868 360.807 86.9968 360.639 85.9889 360.447C85.2509 360.321 84.5189 360.165 83.775 360.015L83.733 288.705Z" fill="#373E11"/>
<path opacity="0.1" d="M415.713 116.824H377.962V200.498H415.713V116.824Z" fill="#373E11"/>
<path opacity="0.1" d="M415.719 203.068V286.135H228.34V250.306H328.146V271.442H377.962V203.068H415.719Z" fill="#373E11"/>
<path opacity="0.1" d="M416.313 377.764H415.713V432.255C408.953 431.683 402.213 430.904 395.494 429.92C365.241 425.487 335.748 416.874 307.861 404.328C299.809 400.702 291.921 396.743 284.198 392.451C271.296 385.298 258.935 377.208 247.215 368.247C244.271 365.989 241.365 363.679 238.497 361.318C236.511 359.678 234.537 357.997 232.54 356.364C231.154 355.241 229.756 354.136 228.34 353.079V288.705H377.464C377.362 288.32 377.26 287.936 377.152 287.558C377.266 287.936 377.374 288.32 377.476 288.705H415.713V377.728C415.917 377.734 416.115 377.752 416.313 377.764Z" fill="#373E11"/>
<path opacity="0.1" d="M514.169 110.592H489.57V102.942H500.598V80.1547C501.554 80.5029 502.506 80.8612 503.454 81.2295V102.942H514.169V110.592Z" fill="#373E11"/>
<path opacity="0.1" d="M573.435 200.504H452.672C452.672 200.504 452.672 200.504 452.714 200.534L452.66 200.504H430.256V116.831H436.604V178.677H465.613V142.05H489.576V113.162H514.175V142.074H538.138V178.701H573.435V200.504Z" fill="#373E11"/>
<path opacity="0.1" d="M430.256 203.068V286.135H573.435V203.068H430.256ZM612.302 383.913L612.5 318.163H573.435V288.741H430.256V433.15C441.995 433.644 453.752 433.503 465.475 432.73H465.679C471.279 432.378 476.853 431.865 482.4 431.193H482.526C512.124 427.745 541.064 420.017 568.443 408.249" fill="#373E11"/>
<path opacity="0.1" d="M629.575 288.705H662.976C662.682 305.571 659.298 322.138 651.894 337.438C645.733 350.149 637.171 361.264 627.055 370.973V318.133H629.575V288.705Z" fill="#373E11"/>
<path opacity="0.1" d="M662.994 286.135H629.575V216.716H647.659C657.018 238.603 662.964 262.621 662.994 286.135Z" fill="#373E11"/>
<path opacity="0.1" d="M415.719 140.086H395.494V166.32H415.719V140.086Z" fill="#373E11"/>
<path opacity="0.1" d="M415.719 194.463H395.494V200.504H415.719V194.463Z" fill="#373E11"/>
<path opacity="0.1" d="M415.719 203.068H395.494V220.691H415.719V203.068Z" fill="#373E11"/>
<path opacity="0.1" d="M415.719 248.84H395.494V275.074H415.719V248.84Z" fill="#373E11"/>
<path opacity="0.1" d="M415.719 303.218H395.494V329.452H415.719V303.218Z" fill="#373E11"/>
<path opacity="0.1" d="M415.713 377.728C415.917 377.728 416.115 377.728 416.313 377.764H415.713V383.859H395.494V357.595H415.713V377.728Z" fill="#373E11"/>
<path opacity="0.1" d="M415.713 411.96V432.225C408.953 431.653 402.213 430.874 395.494 429.89V411.96H415.713Z" fill="#373E11"/>
<path opacity="0.1" d="M315.019 284.207H228.34V286.135H315.019V284.207Z" fill="#373E11"/>
<path opacity="0.1" d="M315.019 288.699H228.34V296.084H315.019V288.699Z" fill="#373E11"/>
<path opacity="0.1" d="M315.019 320.295H228.34V332.172H315.019V320.295Z" fill="#373E11"/>
<path opacity="0.1" d="M315.013 356.382V368.259H247.215C244.271 366.009 241.363 363.699 238.491 361.33C236.505 359.69 234.537 358.009 232.534 356.382H315.013Z" fill="#373E11"/>
<path opacity="0.1" d="M315.013 392.463V404.328H307.855C299.811 400.698 291.925 396.737 284.198 392.445L315.013 392.463Z" fill="#373E11"/>
<path opacity="0.1" d="M482.545 211.12H465.481V228.197H482.545V211.12Z" fill="#373E11"/>
<path opacity="0.1" d="M113.09 131.554H96.0265V148.631H113.09V131.554Z" fill="#373E11"/>
<path opacity="0.1" d="M113.09 171.22H96.0265V188.297H113.09V171.22Z" fill="#373E11"/>
<path opacity="0.1" d="M113.09 210.886H96.0265V227.963H113.09V210.886Z" fill="#373E11"/>
<path opacity="0.1" d="M113.09 250.546H96.0265V267.623H113.09V250.546Z" fill="#373E11"/>
<path opacity="0.1" d="M113.09 290.212H96.0265V307.289H113.09V290.212Z" fill="#373E11"/>
<path opacity="0.1" d="M113.09 329.878H96.0265V346.955H113.09V329.878Z" fill="#373E11"/>
<path opacity="0.1" d="M547.684 211.12H530.621V228.197H547.684V211.12Z" fill="#373E11"/>
<path opacity="0.1" d="M482.545 253.242H465.481V270.319H482.545V253.242Z" fill="#373E11"/>
<path opacity="0.1" d="M547.684 253.242H530.621V270.319H547.684V253.242Z" fill="#373E11"/>
<path opacity="0.1" d="M482.545 295.358H465.481V312.435H482.545V295.358Z" fill="#373E11"/>
<path opacity="0.1" d="M547.684 295.358H530.621V312.435H547.684V295.358Z" fill="#373E11"/>
<path opacity="0.1" d="M482.545 337.48H465.481V354.557H482.545V337.48Z" fill="#373E11"/>
<path opacity="0.1" d="M547.684 337.48H530.621V354.557H547.684V337.48Z" fill="#373E11"/>
<path opacity="0.1" d="M482.545 379.602H465.481V396.678H482.545V379.602Z" fill="#373E11"/>
<path opacity="0.1" d="M547.684 379.602H530.621V396.678H547.684V379.602Z" fill="#373E11"/>
<path opacity="0.1" d="M465.481 432.73V421.718H482.539V431.163L465.481 432.73Z" fill="#373E11"/>
<path opacity="0.1" d="M10.7996 179.158V188.927H69.1955V179.158H10.7996ZM16.6194 188.315H11.8556V179.758H16.6554L16.6194 188.315ZM22.4332 188.315H17.6334V179.758H22.4332V188.315ZM28.235 188.315H23.4352V179.758H28.235V188.315ZM34.0488 188.315H29.255V179.758H34.0548L34.0488 188.315ZM39.8566 188.315H35.0567V179.758H39.8566V188.315ZM45.6704 188.315H40.8705V179.758H45.6704V188.315ZM51.4841 188.315H46.6843V179.758H51.4841V188.315ZM57.2919 188.315H52.4921V179.758H57.2919V188.315ZM63.0997 188.315H58.2999V179.758H63.0997V188.315ZM68.9075 188.315H64.1077V179.758H68.9075V188.315Z" fill="#373E11"/>
<path opacity="0.1" d="M10.7996 207.583V217.353H69.1955V207.583H10.7996ZM16.6194 216.734H11.8556V208.202H16.6554L16.6194 216.734ZM22.4332 216.734H17.6334V208.202H22.4332V216.734ZM28.235 216.734H23.4352V208.202H28.235V216.734ZM34.0488 216.734H29.255V208.202H34.0548L34.0488 216.734ZM39.8566 216.734H35.0567V208.202H39.8566V216.734ZM45.6704 216.734H40.8705V208.202H45.6704V216.734ZM51.4841 216.734H46.6843V208.202H51.4841V216.734ZM57.2919 216.734H52.4921V208.202H57.2919V216.734ZM63.0997 216.734H58.2999V208.202H63.0997V216.734ZM68.9075 216.734H64.1077V208.202H68.9075V216.734Z" fill="#373E11"/>
<path opacity="0.1" d="M10.7996 236.021V245.808H69.1955V236.021H10.7996ZM16.6194 245.172H11.8556V236.633H16.6554L16.6194 245.172ZM22.4332 245.172H17.6334V236.633H22.4332V245.172ZM28.235 245.172H23.4352V236.633H28.235V245.172ZM34.0488 245.172H29.255V236.633H34.0548L34.0488 245.172ZM39.8566 245.172H35.0567V236.633H39.8566V245.172ZM45.6704 245.172H40.8705V236.633H45.6704V245.172ZM51.4841 245.172H46.6843V236.633H51.4841V245.172ZM57.2919 245.172H52.4921V236.633H57.2919V245.172ZM63.0997 245.172H58.2999V236.633H63.0997V245.172ZM68.9075 245.172H64.1077V236.633H68.9075V245.172Z" fill="#373E11"/>
<path opacity="0.1" d="M10.7996 264.458V274.216H69.1955V264.458H10.7996ZM16.6194 273.609H11.8556V265.065H16.6554L16.6194 273.609ZM22.4332 273.609H17.6334V265.065H22.4332V273.609ZM28.235 273.609H23.4352V265.065H28.235V273.609ZM34.0488 273.609H29.255V265.065H34.0548L34.0488 273.609ZM39.8566 273.609H35.0567V265.065H39.8566V273.609ZM45.6704 273.609H40.8705V265.065H45.6704V273.609ZM51.4841 273.609H46.6843V265.065H51.4841V273.609ZM57.2919 273.609H52.4921V265.065H57.2919V273.609ZM63.0997 273.609H58.2999V265.065H63.0997V273.609ZM68.9075 273.609H64.1077V265.065H68.9075V273.609Z" fill="#373E11"/>
<path opacity="0.1" d="M11.0516 292.89C11.2856 293.809 11.5496 294.727 11.8255 295.634V293.502H16.6254V302.041H14.0575C14.1355 302.239 14.2135 302.455 14.2915 302.641H69.1955V292.89H11.0516ZM22.4512 302.041H17.6513V293.502H22.4512V302.041ZM28.253 302.041H23.4531V293.502H28.253V302.041ZM34.0667 302.041H29.2549V293.502H34.0547L34.0667 302.041ZM39.8745 302.041H35.0747V293.502H39.8745V302.041ZM45.6883 302.041H40.8885V293.502H45.6883V302.041ZM51.5021 302.041H46.7023V293.502H51.5021V302.041ZM57.3099 302.041H52.5101V293.502H57.3099V302.041ZM63.1177 302.041H58.3179V293.502H63.1177V302.041ZM68.9255 302.041H64.1256V293.502H68.9255V302.041Z" fill="#373E11"/>
<path opacity="0.1" d="M24.6111 321.327C24.7611 321.52 24.9051 321.736 25.0611 321.928H28.235V326.029C28.5769 326.437 28.9129 326.846 29.2609 327.23V321.904H34.0607V330.472H32.1168C32.3088 330.67 32.4948 330.881 32.7168 331.073H69.2135V321.327H24.6111ZM39.8565 330.472H35.0567V321.94H39.8565V330.472ZM45.6703 330.472H40.8705V321.94H45.6703V330.472ZM51.4841 330.472H46.6843V321.94H51.4841V330.472ZM57.2919 330.472H52.4921V321.94H57.2919V330.472ZM63.0997 330.472H58.2999V321.94H63.0997V330.472ZM68.9075 330.472H64.1076V321.94H68.9075V330.472Z" fill="#373E11"/>
<path opacity="0.1" d="M56.6439 349.759C57.1899 350.071 57.7479 350.359 58.3119 350.672V350.371H63.1117V353.073L64.1317 353.548V350.371H68.9315V355.565C69.0235 355.611 69.12 355.647 69.2195 355.673V349.759H56.6439Z" fill="#373E11"/>
<path opacity="0.1" d="M377.152 287.552C377.266 287.936 377.362 288.32 377.47 288.699C377.374 288.32 377.272 287.936 377.152 287.552ZM90.2847 110.574V113.138H117.086V110.574H90.2847ZM377.152 287.552C377.266 287.936 377.362 288.32 377.47 288.699C377.374 288.32 377.272 287.936 377.152 287.552ZM377.152 287.552C377.266 287.936 377.362 288.32 377.47 288.699C377.374 288.32 377.272 287.936 377.152 287.552Z" fill="#373E11"/>
<path d="M276.95 227.975C276.95 227.975 274.586 227.644 274.586 224.198C274.586 220.751 272.894 214.314 272.894 214.314C272.894 214.284 271.43 203.104 269.408 201.327C267.386 199.549 264.788 189.113 264.788 189.113C264.788 189.113 264.344 183.451 263.438 182.232C262.532 181.013 261.309 178.029 259.503 173.772C257.697 169.514 250.167 166.566 250.167 166.566C250.167 166.566 236.553 158.664 232.696 156.088C232.345 155.877 232.017 155.629 231.718 155.35C231.046 154.467 228.118 154.449 228.118 154.449C227.812 152.516 227.518 150.294 227.422 148.282C227.422 148.066 227.422 147.85 227.392 147.634C231.694 145.089 234.934 141.077 236.517 136.333C236.589 136.105 236.649 135.865 236.715 135.637C236.973 135.552 237.21 135.414 237.412 135.232C237.613 135.05 237.775 134.828 237.885 134.58C238.233 133.805 238.239 132.899 238.671 132.178C239.175 131.326 240.135 130.869 240.891 130.227C242.799 128.605 243.291 125.873 243.201 123.387C243.141 121.376 242.817 119.346 242.943 117.347L242.979 116.843C243.015 116.542 243.057 116.242 243.111 115.954C243.405 114.465 244.047 113.06 244.407 111.583C244.767 110.105 244.803 108.442 243.963 107.169C242.733 105.302 240.171 104.93 237.921 104.737C235.371 104.521 233.092 104.803 231.46 102.684C230.696 101.576 229.837 100.537 228.892 99.5795C228.556 99.2672 225.292 97.2737 225.292 97.1416C222.106 95.665 218.495 95.3879 215.122 96.361C213.43 96.8534 211.834 97.658 210.118 98.0603C206.417 98.937 202.157 97.9883 199.013 100.108C197.261 101.309 196.211 103.218 195.227 105.08C194.427 106.613 193.615 108.144 192.791 109.673C191.465 112.189 190.115 114.747 189.557 117.533C189.44 118.139 189.368 118.753 189.341 119.37V119.4C189.341 119.623 189.341 119.845 189.341 120.067V120.349C189.341 120.559 189.341 120.763 189.377 120.95C189.413 121.136 189.407 121.196 189.425 121.322C189.443 121.448 189.473 121.73 189.509 121.922C189.545 122.115 189.617 122.451 189.689 122.715C189.719 122.829 189.761 122.937 189.797 123.045C189.857 123.249 189.929 123.448 190.007 123.646C190.049 123.748 190.091 123.856 190.139 123.958C190.229 124.168 190.337 124.372 190.445 124.558C190.493 124.642 190.529 124.72 190.577 124.799C190.744 125.078 190.929 125.346 191.129 125.603C192.413 127.206 194.303 128.227 195.701 129.728C195.701 129.788 195.701 129.848 195.701 129.902C195.701 130.071 195.701 130.233 195.701 130.401C195.775 133.749 196.665 137.028 198.295 139.953C199.924 142.878 202.242 145.36 205.049 147.184C205.049 147.412 205.079 147.646 205.091 147.874C205.208 149.656 205.185 151.445 205.025 153.224C204.78 152.936 204.474 152.707 204.13 152.553C203.785 152.399 203.41 152.325 203.033 152.335C202.775 152.323 202.517 152.345 202.265 152.401L202.211 152.359V152.413C200.891 152.738 199.265 154.113 197.711 158.022C197.711 158.022 192.983 163.354 189.383 163.132C185.783 162.909 176.67 168.68 176.67 168.68C176.67 168.68 167.778 174.456 165.87 180.341C164.804 183.677 163.525 186.943 162.042 190.116L151.051 212.783L149.023 230.767C149.023 230.767 150.145 238.765 149.923 239.984C149.701 241.203 154.536 252.197 154.536 252.197C154.536 252.197 170.514 280.292 177.042 281.733L177.51 281.403C177.789 281.549 178.085 281.66 178.392 281.733L179.735 280.785C179.816 281.842 179.782 282.905 179.633 283.955C178.734 286.729 179.969 304.833 181.541 308.382C183.113 311.93 182.555 358.46 182.555 358.46L182.333 362.567C182.333 362.567 182.333 362.699 182.387 362.927L182.333 363.9L182.495 363.984C182.664 365.286 182.609 366.608 182.333 367.893C181.769 369.694 181.541 374.786 181.541 374.786C181.541 374.786 177.048 403.536 179.177 409.312C181.307 415.088 183.119 421.417 183.119 421.417C183.119 421.417 185.369 428.623 183.227 429.854C181.085 431.085 174.996 433.15 176.25 436.152C177.39 438.926 181.715 446.36 182.357 447.447L182.303 448.017L181.421 457.583C181.564 458.846 181.906 460.078 182.435 461.233C183.401 463.317 185.279 465.479 188.849 465.244C189.449 465.202 190.145 465.13 190.817 465.04C197.351 464.164 205.397 461.245 205.397 461.245C204.979 460.98 204.596 460.663 204.257 460.303C203.935 459.991 203.681 459.618 203.509 459.205C203.336 458.792 203.25 458.348 203.255 457.901C203.351 456.16 200.093 447.861 199.283 445.82C199.157 445.525 199.091 445.357 199.091 445.357C199.091 445.357 206.519 437.587 205.283 430.7C205.283 430.7 197.063 425.897 199.769 423.261C202.475 420.625 207.31 413.053 207.31 413.053C207.31 413.053 207.532 384.741 207.31 380.514C207.079 377.58 207.218 374.629 207.724 371.73C207.814 371.291 207.922 370.865 208.036 370.445C211.779 371.004 215.556 371.291 219.34 371.303C220.72 371.303 222.124 371.303 223.54 371.219C223.54 371.619 223.558 372.052 223.594 372.516C223.906 379.53 224.488 391.827 224.962 396.396C225.634 402.947 229.348 420.601 229.348 420.601C229.348 420.601 222.262 425.152 230.584 436.369C230.584 436.369 230.584 440.434 230.032 441.022C229.442 442.946 228.968 444.903 228.61 446.883C228.262 448.996 228.118 451.134 228.682 452.245C230.032 454.899 238.131 454.682 238.131 454.682L238.329 454.646C239.858 454.488 241.404 454.635 242.876 455.08C244.347 455.524 245.716 456.256 246.903 457.234C249.981 459.708 261.663 458.621 267.986 457.835C270.464 457.523 272.12 457.234 272.12 457.234C272.2 456.954 272.229 456.661 272.204 456.37C272.138 454.815 270.92 451.404 262.664 448.36C262.664 448.36 254.901 443.136 255.009 438.584H254.847H253.947C254.601 438.548 255.021 438.584 255.021 438.584C255.021 438.584 251.979 427.476 253.221 426.575C254.463 425.674 250.743 413.365 250.743 413.365C250.743 413.365 248.613 392.709 248.499 391.262C248.504 390.021 248.692 388.786 249.057 387.6L248.499 376.275C248.499 376.275 248.391 372.51 248.499 371.285C248.481 370.222 248.395 369.161 248.241 368.109C248.187 367.689 248.133 367.25 248.073 366.818C250.983 366.079 252.873 365.395 252.873 365.395L252.537 325.975C255.009 321.171 255.465 310.633 255.453 303.158C255.453 298.354 255.237 294.799 255.237 294.799L258.615 289.281C258.615 289.281 259.395 282.676 258.159 281.229C257.613 280.575 257.859 279.896 258.309 279.338C258.542 279.152 258.789 278.984 259.047 278.833C259.047 278.833 259.011 278.779 258.969 278.701C259.204 278.504 259.455 278.325 259.719 278.167C259.719 278.167 258.519 276.305 259.593 275.519C260.601 276.203 261.501 276.72 262.184 277.14C262.136 277.578 262.088 277.83 262.088 277.83L262.376 277.23C263.036 277.602 263.438 277.83 263.438 277.83C263.438 277.83 268.73 267.28 268.616 265.725C268.502 264.17 272.216 257.619 272.216 257.619C272.216 257.619 272.666 254.179 274.694 252.737C276.722 251.296 276.266 240.854 276.266 240.854C276.266 240.854 276.83 235.414 278.18 233.193C279.53 230.971 276.95 227.975 276.95 227.975ZM175.698 223.345L175.8 225.861C175.2 224.894 174.768 224.198 174.768 224.198L175.698 223.345Z" fill="url(#paint0_linear_17_1227)"/>
<path d="M263.726 273.273L262.431 278.797C262.431 278.797 252.051 273.495 250.179 266.758C248.307 260.021 253.311 257.463 253.311 257.463L262.983 261.564L263.726 273.273Z" fill="white"/>
<path opacity="0.1" d="M263.726 273.273L262.431 278.797C262.431 278.797 252.051 273.495 250.179 266.758C248.307 260.021 253.311 257.463 253.311 257.463L262.983 261.564L263.726 273.273Z" fill="black"/>
<path d="M205.475 461.281C205.475 461.281 195.875 464.812 189.275 465.256C185.771 465.491 183.929 463.341 182.981 461.269C182.464 460.118 182.13 458.892 181.991 457.637L182.849 448.119L183.305 443.052L197.327 439.407L199.313 445.483L199.499 445.946C200.297 447.975 203.495 456.232 203.399 457.955C203.395 458.396 203.48 458.834 203.649 459.241C203.818 459.649 204.068 460.018 204.383 460.327C204.705 460.69 205.072 461.011 205.475 461.281Z" fill="white"/>
<path d="M271.046 456.442C271.07 456.731 271.042 457.022 270.962 457.3C270.962 457.3 250.431 460.729 246.231 457.3C245.047 456.299 243.667 455.556 242.179 455.12C240.691 454.683 239.128 454.563 237.591 454.766C237.591 454.766 229.648 454.983 228.322 452.365C227.77 451.266 227.914 449.134 228.256 447.033C228.605 445.063 229.069 443.117 229.648 441.202L229.966 440.95L231.856 439.431L253.983 438.776H254.151C254.043 443.304 261.663 448.498 261.663 448.498C269.756 451.5 270.95 454.893 271.046 456.442Z" fill="white"/>
<path opacity="0.1" d="M271.046 456.442C271.067 456.731 271.037 457.022 270.956 457.3C270.956 457.3 250.431 460.729 246.231 457.3C245.048 456.3 243.668 455.557 242.182 455.121C240.695 454.684 239.133 454.564 237.597 454.766C237.597 454.766 229.648 454.983 228.328 452.365C227.776 451.26 227.914 449.134 228.256 447.033C231.316 447.339 236.145 448.101 238.041 449.921C240.909 452.689 245.769 455.451 248.751 455.667C251.085 455.817 265.046 456.262 271.046 456.442Z" fill="black"/>
<path opacity="0.1" d="M205.475 461.281C205.475 461.281 195.875 464.812 189.275 465.256C185.771 465.491 183.929 463.341 182.987 461.263C185.429 462.086 188.819 462.951 190.601 462.158C192.713 461.221 200.201 460.615 204.401 460.357C204.72 460.707 205.081 461.017 205.475 461.281Z" fill="black"/>
<path d="M219.718 176.756C211.798 173.676 201.611 163.498 204.155 158.742C204.72 157.542 205.055 156.247 205.145 154.923C205.308 153.127 205.332 151.32 205.217 149.519C205.038 146.57 204.684 143.635 204.155 140.729C204.155 140.729 228.88 141.287 227.44 144.932C227.02 146.001 226.954 147.856 227.068 149.934C227.182 152.011 227.482 154.359 227.794 156.346C228.226 159.073 228.658 161.15 228.658 161.15C228.658 161.15 227.146 163.27 226.258 163.384C225.37 163.498 231.082 181.145 219.718 176.756Z" fill="#FFD2D9"/>
<path opacity="0.1" d="M199.481 445.946L199.295 446.15C191.903 437.203 182.963 448.354 182.963 448.354L182.831 448.119L183.287 443.052L197.309 439.407L199.295 445.483L199.481 445.946Z" fill="black"/>
<path opacity="0.1" d="M254.157 439.407C254.157 439.407 248.757 439.293 245.877 441.839C242.997 444.385 229.078 442.391 229.678 441.839C229.855 441.565 229.963 441.251 229.99 440.926L231.88 439.407L254.007 438.752C254.091 439.155 254.157 439.407 254.157 439.407Z" fill="black"/>
<path d="M208.678 369.148C208.276 370.143 207.971 371.174 207.766 372.228C207.266 375.114 207.127 378.05 207.353 380.971C207.574 385.174 207.353 413.341 207.353 413.341C207.353 413.341 202.607 420.853 199.961 423.501C197.315 426.149 205.361 430.904 205.361 430.904C206.561 437.75 199.289 445.483 199.289 445.483C191.897 436.537 182.957 447.693 182.957 447.693C182.957 447.693 178.098 439.287 176.886 436.284C175.674 433.282 181.631 431.205 183.725 429.986C185.819 428.767 183.623 421.579 183.623 421.579C183.623 421.579 181.853 415.281 179.754 409.534C177.654 403.788 182.069 375.182 182.069 375.182C182.069 375.182 182.297 370.102 182.843 368.331C183.119 367.053 183.174 365.737 183.005 364.44C182.969 364.002 182.927 363.635 182.897 363.389C182.867 363.143 182.843 363.029 182.843 363.029L182.927 362.885L185.927 357.289C185.927 357.289 210.118 365.623 208.678 369.148Z" fill="#373E11"/>
<path d="M254.157 438.746C254.157 438.746 248.757 438.632 245.877 441.148C242.997 443.664 229.078 441.701 229.678 441.148C230.278 440.596 230.23 436.507 230.23 436.507C222.064 425.35 229.03 420.823 229.03 420.823C229.03 420.823 225.382 403.26 224.722 396.745C224.26 392.193 223.69 379.962 223.384 372.979C223.252 369.976 223.174 367.911 223.174 367.911L229.846 366.566L230.704 366.392L246.795 363.161C246.795 363.161 247.239 366.163 247.539 368.619C247.689 369.668 247.773 370.725 247.791 371.784C247.683 372.985 247.791 376.743 247.791 376.743L248.337 388.014C247.98 389.196 247.796 390.424 247.791 391.659C247.899 393.094 249.993 413.641 249.993 413.641C249.993 413.641 253.635 425.903 252.393 426.785C251.151 427.668 254.157 438.746 254.157 438.746Z" fill="#373E11"/>
<path opacity="0.1" d="M227.44 144.932C227.02 146.001 226.954 147.856 227.068 149.934C223.756 151.93 219.949 152.95 216.083 152.878C212.218 152.806 208.452 151.644 205.217 149.525C205.038 146.574 204.684 143.637 204.155 140.729C204.155 140.729 228.88 141.275 227.44 144.932Z" fill="black"/>
<path d="M236.997 131.662C237.002 133.825 236.662 135.976 235.989 138.033C234.486 142.64 231.404 146.568 227.287 149.121C223.17 151.674 218.284 152.689 213.492 151.985C208.7 151.282 204.311 148.906 201.101 145.277C197.89 141.648 196.064 137 195.947 132.154C195.947 131.986 195.947 131.83 195.947 131.662C195.9 128.934 196.397 126.225 197.408 123.691C198.418 121.158 199.923 118.851 201.834 116.906C203.745 114.961 206.023 113.415 208.537 112.361C211.051 111.306 213.749 110.763 216.475 110.763C219.201 110.763 221.899 111.306 224.413 112.361C226.927 113.415 229.206 114.961 231.117 116.906C233.027 118.851 234.532 121.158 235.543 123.691C236.553 126.225 237.05 128.934 237.003 131.662H236.997Z" fill="#FFD2D9"/>
<path opacity="0.1" d="M219.718 176.756C211.798 173.676 201.611 163.498 204.155 158.742C204.72 157.542 205.055 156.247 205.145 154.923L215.986 163.84L222.694 169.346L227.794 156.352C228.226 159.078 228.658 161.156 228.658 161.156C228.658 161.156 227.146 163.276 226.258 163.39C225.37 163.504 231.082 181.145 219.718 176.756Z" fill="black"/>
<path d="M247.755 216.164L238.701 368.379L226.894 369.154L196.319 280.893L201.335 176.107L202.391 153.969L215.986 165.143L222.7 170.649L227.95 157.277L237.711 165.792L247.755 216.164Z" fill="#373E11"/>
<path opacity="0.1" d="M208.678 369.148C208.276 370.143 207.971 371.174 207.766 372.228C199.175 370.9 190.83 368.291 183.011 364.488L182.849 364.404L182.903 363.437L182.933 362.933L185.933 357.337C185.933 357.337 210.118 365.623 208.678 369.148Z" fill="black"/>
<path opacity="0.1" d="M229.984 372.252C227.787 372.626 225.572 372.878 223.348 373.009C223.216 370.006 223.138 367.941 223.138 367.941L229.81 366.596L229.984 372.252Z" fill="black"/>
<path opacity="0.1" d="M247.503 368.649C243.237 369.76 236.649 371.009 230.752 370.228L230.668 366.421L246.759 363.191C246.759 363.191 247.203 366.163 247.503 368.649Z" fill="black"/>
<path opacity="0.1" d="M230.644 370.925C206.045 375.128 183.515 363.077 183.515 363.077L183.731 358.994C183.731 358.994 184.289 312.705 182.741 309.156C181.193 305.608 179.987 287.612 180.863 284.85C181.739 282.088 177.666 240.668 177.666 240.668L177.006 223.856L152.85 214.062L163.65 191.533C165.109 188.374 166.363 185.125 167.406 181.806C169.284 175.957 178.002 170.211 178.002 170.211C178.002 170.211 186.941 164.471 190.475 164.687C194.009 164.903 198.641 159.607 198.641 159.607C202.061 150.882 205.157 154.833 205.157 154.833C205.157 155.248 205.157 154.833 204.989 156.124C203.789 165.702 224.392 195.965 224.686 196.499L226.648 244.331L228.634 304.863L230.644 370.925Z" fill="black"/>
<path d="M229.984 370.925C205.385 375.128 182.849 363.077 182.849 363.077L183.071 358.994C183.071 358.994 183.629 312.705 182.075 309.156C180.521 305.607 179.322 287.612 180.203 284.85C181.085 282.088 177.006 240.668 177.006 240.668L176.34 223.856L152.172 214.026L162.972 191.497C164.428 188.337 165.682 185.088 166.728 181.77C168.6 175.921 177.324 170.175 177.324 170.175C177.324 170.175 186.263 164.435 189.791 164.651C193.319 164.867 197.957 159.571 197.957 159.571C201.383 150.846 205.157 154.797 205.157 154.797C205.157 155.212 204.797 155.398 204.989 156.088C207.628 165.377 223.732 195.928 224.026 196.463L226.012 244.295L227.998 304.827L229.984 370.925Z" fill="white"/>
<path opacity="0.1" d="M223.354 197.826C220.708 196.721 206.693 180.707 206.693 180.707V177.062C206.183 175.861 203.153 176.594 200.693 177.434L201.749 155.296L202.949 156.292C205.577 165.575 223.048 197.291 223.354 197.826Z" fill="black"/>
<path d="M224.02 196.499C221.368 195.394 207.353 179.38 207.353 179.38V175.735C206.843 174.534 203.813 175.267 201.353 176.107L202.415 153.969L203.615 154.965C206.249 164.248 223.726 195.97 224.02 196.499Z" fill="white"/>
<path opacity="0.1" d="M183.515 276.365C183.845 276.365 200.621 274.6 200.621 274.6C200.621 274.6 210.778 294.589 210.112 299.453C209.446 304.316 208.24 308.622 204.155 307.859C200.069 307.097 182.165 308.46 182.165 308.46L183.515 276.365Z" fill="black"/>
<path d="M182.849 275.038C183.179 275.038 199.955 273.273 199.955 273.273C199.955 273.273 210.106 293.268 209.446 298.126C208.786 302.983 207.569 307.295 203.489 306.532C199.409 305.77 181.499 307.133 181.499 307.133L182.849 275.038Z" fill="white"/>
<path d="M195.491 265.653C195.491 265.653 210.886 273.933 211.216 276.461C211.546 278.989 203.381 275.357 201.617 274.918C200.456 274.638 199.274 274.453 198.083 274.366L186.317 274.684L195.491 265.653Z" fill="#FFD2D9"/>
<path opacity="0.1" d="M219.058 198.859C219.953 198.859 220.678 198.133 220.678 197.237C220.678 196.342 219.953 195.616 219.058 195.616C218.163 195.616 217.438 196.342 217.438 197.237C217.438 198.133 218.163 198.859 219.058 198.859Z" fill="black"/>
<path d="M219.058 198.198C219.953 198.198 220.678 197.472 220.678 196.577C220.678 195.682 219.953 194.956 219.058 194.956C218.163 194.956 217.438 195.682 217.438 196.577C217.438 197.472 218.163 198.198 219.058 198.198Z" fill="#3F3D56"/>
<path opacity="0.1" d="M222.04 269.04C222.935 269.04 223.66 268.314 223.66 267.419C223.66 266.523 222.935 265.797 222.04 265.797C221.145 265.797 220.42 266.523 220.42 267.419C220.42 268.314 221.145 269.04 222.04 269.04Z" fill="black"/>
<path d="M222.04 268.373C222.935 268.373 223.66 267.647 223.66 266.752C223.66 265.857 222.935 265.131 222.04 265.131C221.145 265.131 220.42 265.857 220.42 266.752C220.42 267.647 221.145 268.373 222.04 268.373Z" fill="#3F3D56"/>
<path opacity="0.1" d="M220.672 233.949C221.567 233.949 222.292 233.223 222.292 232.328C222.292 231.433 221.567 230.707 220.672 230.707C219.777 230.707 219.052 231.433 219.052 232.328C219.052 233.223 219.777 233.949 220.672 233.949Z" fill="black"/>
<path d="M220.672 233.289C221.567 233.289 222.292 232.563 222.292 231.667C222.292 230.772 221.567 230.046 220.672 230.046C219.777 230.046 219.052 230.772 219.052 231.667C219.052 232.563 219.777 233.289 220.672 233.289Z" fill="#3F3D56"/>
<path d="M258.015 274.03C258.015 274.03 259.119 275.687 258.015 276.461C256.911 277.236 258.123 279.109 258.123 279.109C258.123 279.109 255.369 280.725 256.581 282.178C257.793 283.631 257.025 290.194 257.025 290.194L253.713 295.682C253.713 295.682 253.911 299.219 253.923 303.998C253.923 311.456 253.485 321.94 251.061 326.719L251.397 365.935C251.397 365.935 239.799 370.174 230.092 368.883L228.652 305.956C228.652 305.956 230.752 270.271 231.526 263.426C231.979 259.872 232.163 256.289 232.078 252.707C232.078 252.707 231.748 241.995 230.638 237.024C230.638 237.024 229.438 215.485 229.318 209.523C229.264 206.671 229.414 198.348 229.582 190.434C229.768 181.782 229.978 173.622 229.978 173.622L227.788 156.28C227.788 156.28 229.978 156.058 230.638 156.941C230.933 157.217 231.255 157.465 231.598 157.679C235.377 160.237 248.733 168.103 248.733 168.103C248.733 168.103 256.125 171.046 257.895 175.261C259.665 179.476 260.895 182.466 261.752 183.667C262.61 184.868 263.078 190.512 263.078 190.512C263.078 190.512 265.622 200.9 267.608 202.66C269.594 204.419 271.046 215.611 271.046 215.611L253.497 229.422C253.497 229.422 251.955 252.395 251.625 253.284C251.295 254.173 258.015 274.03 258.015 274.03Z" fill="white"/>
<path d="M258.681 274.03C258.681 274.03 259.779 275.687 258.681 276.461C257.583 277.236 258.783 279.109 258.783 279.109C258.783 279.109 256.047 280.743 257.247 282.196C258.447 283.649 257.691 290.212 257.691 290.212L254.379 295.7C254.379 295.7 254.577 299.237 254.595 304.016C254.595 311.474 254.157 321.958 251.733 326.738L252.063 365.953C252.063 365.953 240.447 370.192 230.752 368.901L229.318 305.974C229.318 305.974 231.418 270.289 232.192 263.444C232.645 259.89 232.828 256.307 232.738 252.725C232.738 252.725 232.408 242.013 231.304 237.042C231.304 237.042 230.104 215.503 229.978 209.541C229.924 206.689 230.08 198.366 230.242 190.452C230.428 181.8 230.638 173.64 230.638 173.64L227.746 156.064C227.746 156.064 230.638 156.064 231.304 156.959C231.596 157.239 231.918 157.486 232.264 157.697C236.043 160.255 249.405 168.121 249.405 168.121C249.405 168.121 256.791 171.064 258.561 175.279C260.331 179.494 261.561 182.484 262.424 183.685C263.288 184.886 263.744 190.53 263.744 190.53C263.744 190.53 266.288 200.918 268.274 202.678C270.26 204.437 271.694 215.605 271.694 215.605L254.145 229.416C254.145 229.416 252.603 252.389 252.267 253.278C251.931 254.167 258.681 274.03 258.681 274.03Z" fill="white"/>
<path opacity="0.1" d="M237.663 178.737L239.247 183.361L230.908 191.767C231.094 183.121 231.304 174.954 231.304 174.954L228.412 157.379C228.412 157.379 231.304 157.379 231.97 158.274C232.262 158.553 232.584 158.798 232.93 159.006L240.021 179.482L237.663 178.737Z" fill="black"/>
<path d="M236.997 177.41L238.587 182.034L230.248 190.44C230.434 181.788 230.644 173.628 230.644 173.628L227.746 156.052C227.746 156.052 230.644 156.052 231.304 156.947C231.598 157.225 231.92 157.472 232.264 157.685L239.361 178.155L236.997 177.41Z" fill="white"/>
<path opacity="0.1" d="M236.997 131.662C237.002 133.825 236.662 135.976 235.989 138.033C235.876 138.05 235.76 138.045 235.649 138.017C235.538 137.989 235.433 137.939 235.341 137.87C235.185 132.466 232.528 127.393 229.258 123.075C228.34 121.772 227.227 120.617 225.958 119.653C224.675 118.688 223.079 118.237 221.482 118.386C219.682 118.632 218.092 119.857 216.274 120.013C213.874 120.211 211.726 118.548 209.344 118.464C208.376 118.473 207.421 118.689 206.543 119.097C205.664 119.505 204.883 120.095 204.251 120.83C202.999 122.311 202.07 124.037 201.521 125.897C200.577 128.719 200.064 131.666 199.997 134.64C199.967 136.321 199.805 138.429 198.245 139.041C198.362 137.805 198.222 136.557 197.832 135.378C197.443 134.199 196.813 133.113 195.983 132.19L195.947 132.154C195.947 131.986 195.947 131.83 195.947 131.662C195.9 128.934 196.397 126.225 197.408 123.691C198.418 121.158 199.923 118.851 201.834 116.906C203.745 114.961 206.023 113.415 208.537 112.361C211.051 111.306 213.749 110.763 216.475 110.763C219.201 110.763 221.899 111.306 224.413 112.361C226.927 113.415 229.206 114.961 231.117 116.906C233.027 118.851 234.532 121.158 235.543 123.691C236.553 126.225 237.05 128.934 237.003 131.662H236.997Z" fill="black"/>
<path d="M224.974 99.039C221.856 97.5713 218.31 97.2937 215.002 98.2584C213.34 98.7508 211.774 99.5494 210.088 99.9517C206.489 100.822 202.289 99.8797 199.199 101.987C197.483 103.188 196.451 105.086 195.491 106.929L193.091 111.504C191.783 114.008 190.463 116.554 189.917 119.31C189.371 122.066 189.701 125.153 191.447 127.368C192.719 128.984 194.597 129.998 195.977 131.518C196.804 132.442 197.431 133.527 197.819 134.705C198.207 135.882 198.348 137.128 198.233 138.363C199.799 137.762 199.949 135.649 199.985 133.967C200.052 130.993 200.565 128.046 201.509 125.225C202.056 123.364 202.986 121.638 204.239 120.157C204.871 119.423 205.653 118.833 206.531 118.425C207.409 118.017 208.364 117.801 209.332 117.791C211.732 117.875 213.886 119.533 216.262 119.334C218.062 119.184 219.658 117.953 221.47 117.713C223.068 117.562 224.664 118.014 225.946 118.98C227.214 119.943 228.326 121.098 229.24 122.403C232.516 126.72 235.174 131.782 235.329 137.198C236.007 137.696 236.985 137.048 237.321 136.279C237.657 135.511 237.669 134.61 238.095 133.877C238.587 133.031 239.529 132.58 240.267 131.944C242.139 130.329 242.607 127.609 242.535 125.141C242.463 122.673 241.983 120.169 242.451 117.743C242.733 116.254 243.369 114.861 243.717 113.39C244.065 111.919 244.107 110.268 243.285 109.001C242.085 107.139 239.559 106.773 237.357 106.599C234.856 106.383 232.618 106.659 231.022 104.551C230.273 103.451 229.429 102.419 228.502 101.465C228.184 101.153 224.974 99.1711 224.974 99.039Z" fill="#512E4E"/>
<path opacity="0.1" d="M159.762 225.663L153.492 214.062L151.507 231.962C151.507 231.962 152.61 239.912 152.388 241.131C152.167 242.35 156.912 253.278 156.912 253.278C156.912 253.278 172.59 281.223 178.992 282.664L200.621 267.196L194.885 259.907C194.885 259.907 192.899 259.132 192.401 259.907C192.401 259.907 181.751 241.569 180.647 240.242C179.544 238.915 179.76 236.267 179.76 236.267C179.76 236.267 178.104 234.502 178.656 232.844C179.208 231.187 175.458 225.441 175.458 225.441L178.878 222.24L159.762 225.663Z" fill="black"/>
<path d="M153.822 212.741L152.166 214.062L150.181 231.962C150.181 231.962 151.285 239.912 151.063 241.131C150.841 242.35 155.592 253.278 155.592 253.278C155.592 253.278 171.264 281.223 177.666 282.664L199.301 267.196L193.559 259.907C193.559 259.907 191.573 259.132 191.075 259.907C191.075 259.907 180.425 241.569 179.321 240.242C178.218 238.915 178.44 236.267 178.44 236.267C178.44 236.267 176.784 234.502 177.336 232.844C177.888 231.187 174.132 225.441 174.132 225.441L177.552 222.24L153.822 212.741Z" fill="white"/>
<path opacity="0.1" d="M256.581 282.862C257.781 284.321 257.025 290.872 257.025 290.872L253.713 296.36C253.713 296.36 253.911 299.903 253.923 304.677L248.355 306.418C247.852 306.575 247.318 306.61 246.799 306.519C246.28 306.428 245.79 306.214 245.37 305.895C244.95 305.576 244.613 305.161 244.386 304.685C244.159 304.208 244.049 303.685 244.065 303.158L245.025 272.168L258.015 277.14C256.911 277.908 258.123 279.794 258.123 279.794C258.123 279.794 255.369 281.403 256.581 282.862Z" fill="black"/>
<path d="M257.247 282.196C258.447 283.655 257.691 290.212 257.691 290.212L254.379 295.7C254.379 295.7 254.577 299.237 254.595 304.016L248.925 305.788C248.432 305.941 247.91 305.974 247.402 305.884C246.893 305.795 246.414 305.585 246.003 305.273C245.592 304.96 245.262 304.554 245.04 304.088C244.817 303.622 244.71 303.109 244.725 302.593L245.691 271.508L258.687 276.479C257.577 277.248 258.789 279.127 258.789 279.127C258.789 279.127 256.047 280.743 257.247 282.196Z" fill="white"/>
<path d="M261.549 267.425C261.549 267.425 260.667 273.063 258.459 273.393C256.251 273.723 255.261 282.514 253.059 282.202C250.857 281.89 252.315 274.03 252.393 272.504C252.471 270.979 249.993 264.663 251.847 263.227C253.701 261.792 259.569 263.227 259.569 263.227L261.549 267.425Z" fill="#FFD2D9"/>
<path opacity="0.1" d="M266.246 224.006L270.41 215.599C270.41 215.599 272.066 222.006 272.066 225.429C272.066 228.851 274.382 229.188 274.382 229.188C274.382 229.188 276.92 232.19 275.582 234.376C274.244 236.561 273.704 242.001 273.704 242.001C273.704 242.001 274.142 252.383 272.156 253.818C270.17 255.253 269.756 258.682 269.756 258.682C269.756 258.682 266.108 265.197 266.222 266.746C266.336 268.295 261.147 278.785 261.147 278.785C261.147 278.785 263.684 265.749 248.895 260.117C248.895 260.117 248.781 255.692 249.885 254.479C250.989 253.266 252.711 252.713 251.631 246.583C250.551 240.452 251.319 233.127 251.319 231.656C251.319 230.184 254.631 221.009 254.631 221.009L266.246 224.006Z" fill="black"/>
<path d="M268.046 214.398L271.682 215.599C271.682 215.599 273.344 222.006 273.344 225.429C273.344 228.851 275.66 229.188 275.66 229.188C275.66 229.188 278.198 232.19 276.86 234.376C275.522 236.561 274.988 242.001 274.988 242.001C274.988 242.001 275.426 252.383 273.44 253.818C271.454 255.253 271.01 258.682 271.01 258.682C271.01 258.682 267.368 265.197 267.482 266.746C267.596 268.295 262.4 278.785 262.4 278.785C262.4 278.785 264.944 265.749 250.149 260.117C250.149 260.117 250.041 255.692 251.145 254.479C252.249 253.266 253.971 252.713 252.891 246.583C251.811 240.452 252.579 233.127 252.579 231.656C252.579 230.184 255.891 221.009 255.891 221.009L268.046 214.398Z" fill="white"/>
<path opacity="0.1" d="M187.739 432.285C187.739 432.285 193.535 428.641 197.339 431.289C201.143 433.937 187.739 432.285 187.739 432.285Z" fill="black"/>
<path opacity="0.1" d="M232.774 421.015C232.774 421.015 237.903 420.354 242.211 424.996C246.519 429.637 232.774 421.015 232.774 421.015Z" fill="black"/>
<g opacity="0.1">
<path d="M240.279 130.629C239.541 131.265 238.593 131.722 238.101 132.568C237.681 133.295 237.669 134.19 237.333 134.97C236.997 135.751 236.019 136.387 235.341 135.895C235.186 130.491 232.522 125.417 229.252 121.094C228.338 119.789 227.226 118.634 225.958 117.671C224.674 116.705 223.075 116.253 221.476 116.404C219.676 116.65 218.092 117.875 216.274 118.025C213.874 118.23 211.72 116.566 209.338 116.482C208.37 116.492 207.416 116.708 206.538 117.118C205.661 117.527 204.881 118.119 204.251 118.854C202.998 120.332 202.068 122.057 201.521 123.916C200.578 126.737 200.064 129.684 199.997 132.658C199.961 134.334 199.805 136.423 198.257 137.048C198.293 137.491 198.293 137.937 198.257 138.381C199.817 137.78 199.973 135.667 200.009 133.985C200.076 131.011 200.589 128.064 201.533 125.243C202.08 123.382 203.01 121.656 204.263 120.175C204.894 119.442 205.674 118.851 206.552 118.443C207.429 118.035 208.383 117.819 209.35 117.809C211.75 117.893 213.91 119.551 216.286 119.352C218.086 119.202 219.682 117.971 221.488 117.731C223.087 117.58 224.686 118.032 225.97 118.998C227.238 119.961 228.35 121.116 229.264 122.421C232.534 126.738 235.198 131.8 235.354 137.216C236.031 137.714 237.009 137.066 237.345 136.297C237.681 135.529 237.693 134.628 238.113 133.895C238.605 133.049 239.553 132.598 240.291 131.962C242.163 130.347 242.631 127.627 242.559 125.159C242.559 125.081 242.559 125.003 242.559 124.931C242.445 127.068 241.875 129.248 240.279 130.629Z" fill="black"/>
<path d="M195.989 130.203C194.609 128.683 192.725 127.669 191.459 126.059C190.393 124.635 189.784 122.92 189.713 121.142C189.524 123.364 190.144 125.58 191.459 127.38C192.725 128.996 194.609 130.01 195.989 131.53C197.314 133.016 198.109 134.899 198.251 136.886C198.343 135.677 198.19 134.462 197.801 133.313C197.412 132.165 196.796 131.107 195.989 130.203Z" fill="black"/>
<path d="M243.729 112.075C243.375 113.546 242.745 114.945 242.457 116.428C242.287 117.419 242.224 118.426 242.271 119.43C242.291 118.858 242.353 118.288 242.457 117.725C242.745 116.236 243.375 114.843 243.729 113.372C243.935 112.56 244.002 111.72 243.927 110.886C243.89 111.287 243.824 111.684 243.729 112.075Z" fill="black"/>
</g>
<path opacity="0.1" d="M79.6351 456.7C111.923 456.7 138.097 452.493 138.097 447.303C138.097 442.113 111.923 437.906 79.6351 437.906C47.3475 437.906 21.1732 442.113 21.1732 447.303C21.1732 452.493 47.3475 456.7 79.6351 456.7Z" fill="#373E11"/>
<path d="M81.5191 267.286H77.7572V352.053H81.5191V267.286Z" fill="#535461"/>
<path d="M105.158 351.794L104.924 355.613L104.588 361.017L104.45 363.263L104.12 368.667L103.976 370.913L103.64 376.317L99.8484 437.605C99.6835 440.242 98.5209 442.717 96.5971 444.527C94.6732 446.336 92.1328 447.344 89.4927 447.345H69.7774C67.138 447.344 64.5983 446.336 62.6754 444.526C60.7525 442.717 59.5912 440.242 59.4278 437.605L55.654 376.275L55.318 370.871L55.18 368.625L54.844 363.221L54.706 360.975L54.37 355.571L54.13 351.752C54.0883 351.017 54.1971 350.282 54.4498 349.59C54.7024 348.899 55.0935 348.266 55.5992 347.732C56.1048 347.197 56.7143 346.771 57.3902 346.481C58.0661 346.19 58.7942 346.041 59.5298 346.042H99.8544C100.587 346.048 101.311 346.205 101.981 346.502C102.651 346.799 103.253 347.231 103.75 347.77C104.247 348.309 104.628 348.944 104.871 349.636C105.113 350.328 105.211 351.063 105.158 351.794Z" fill="#3F3D56"/>
<path d="M104.924 355.613L104.588 360.999H54.682L54.346 355.613H104.924Z" fill="#9D9CB5"/>
<path d="M104.45 363.245L104.12 368.637H55.156L54.82 363.245H104.45Z" fill="#9D9CB5"/>
<path d="M103.976 370.889L103.646 376.275H55.63L55.294 370.889H103.976Z" fill="#9D9CB5"/>
<path d="M48.6042 299.056C70.5094 314.92 79.6531 339.731 79.6531 339.731C79.6531 339.731 53.2541 338.825 31.3428 322.961C9.43164 307.097 0.305969 282.292 0.305969 282.292C0.305969 282.292 26.693 283.192 48.6042 299.056Z" fill="#373E11"/>
<path d="M0.287964 282.292C0.287964 282.292 27.695 297.513 36.4847 310.117C45.2743 322.72 79.6531 339.731 79.6531 339.731" stroke="#535461" stroke-width="2" stroke-miterlimit="10"/>
<path d="M62.7458 267.1C74.6673 275.729 79.6531 289.233 79.6531 289.233C79.6531 289.233 65.2837 288.741 53.3561 280.112C41.4285 271.484 36.4547 257.973 36.4547 257.973C36.4547 257.973 50.8182 258.466 62.7458 267.1Z" fill="#373E11"/>
<path d="M36.4547 257.973C36.4547 257.973 51.3702 266.26 56.152 273.117C60.9338 279.974 79.6531 289.233 79.6531 289.233" stroke="#535461" stroke-width="2" stroke-miterlimit="10"/>
<path d="M96.9625 288.549C83.265 303.614 80.3671 323.303 80.3671 323.303C80.3671 323.303 99.6804 318.559 113.366 303.488C127.051 288.416 129.961 268.734 129.961 268.734C129.961 268.734 110.66 273.483 96.9625 288.549Z" fill="#373E11"/>
<path d="M129.973 268.74C129.973 268.74 112.13 284.183 107.594 294.823C103.058 305.463 80.3671 323.303 80.3671 323.303" stroke="#535461" stroke-width="2" stroke-miterlimit="10"/>
<path d="M599.78 283.247C599.78 283.247 589.875 233.925 593.667 227.789C593.667 227.789 593.805 222.084 593.577 214.813C593.577 214.537 593.577 214.26 593.577 213.978C594.244 214.423 594.939 214.824 595.659 215.179C599.152 216.975 603.163 217.494 606.998 216.644L603.998 213.3C603.278 212.501 602.528 211.636 602.372 210.58C602.216 209.523 602.648 208.58 603.02 207.637C605.87 200.432 606.02 191.371 600.53 185.871C595.893 181.247 594.765 175.279 589.731 171.058C586.053 167.965 584.031 163.432 582.123 159.048C580.509 155.344 578.883 151.609 577.959 147.682C577.239 144.614 576.951 141.437 575.961 138.441C574.971 135.445 573.117 132.532 570.219 131.193C569.187 130.719 568.042 130.449 567.1 129.818C565.864 128.984 565.12 127.627 564.226 126.438C559.684 120.433 544.474 123.97 537.275 126.408C535.317 127.022 533.505 128.027 531.947 129.362L532.013 129.254C532.067 129.164 532.133 129.074 532.193 128.984C531.405 129.621 530.724 130.382 530.177 131.235C529.127 132.899 528.689 134.838 527.813 136.64C526.757 138.771 520.883 144.722 523.409 147.117C523.586 147.278 523.789 147.408 524.009 147.502C524.957 147.897 526.001 148.001 527.009 147.802L526.901 148.06C526.038 150.174 525.596 152.436 525.599 154.719C525.599 164.585 533.729 172.583 543.766 172.583C545.653 172.585 547.529 172.295 549.328 171.724C549.37 171.952 549.406 172.18 549.448 172.409C549.448 172.499 549.478 172.589 549.49 172.679L549.172 173.123C549.156 173.096 549.138 173.07 549.118 173.045L539.699 186.219C538.259 187.234 529.967 193.238 529.499 197.742C529.007 202.672 528.515 208.442 528.515 208.442L528.449 209.679C528.037 210.023 527.556 210.274 527.038 210.414C526.52 210.554 525.978 210.58 525.449 210.489C522.509 210.009 522.509 221.298 522.509 221.298C522.509 221.298 520.553 223.099 519.209 221.538C517.865 219.977 514.313 225.267 514.313 225.267L492.054 226.227L491.544 226.257L490.344 222.541C490.215 222.149 489.937 221.823 489.569 221.636C489.202 221.448 488.775 221.413 488.382 221.538C488.289 221.568 488.199 221.607 488.112 221.652L488.028 221.7L487.872 221.808L487.794 221.88C487.751 221.919 487.711 221.961 487.674 222.006L487.602 222.09L487.566 222.126C487.428 222.318 487.336 222.539 487.299 222.773C487.261 223.007 487.279 223.246 487.35 223.471L488.382 226.66C484.087 227.524 479.695 229.962 483.277 236.675L465.121 233.319L470.995 238.254L501.318 244.517C500.916 245.238 501.18 246.283 502.434 247.754C507.834 254.1 517.673 255.824 521.633 256.268C522.679 258.609 523.985 260.825 525.527 262.873L525.185 269.196C525.185 269.196 515.159 317.388 513.323 319.832C514.25 318.781 515.099 317.663 515.861 316.488C512.951 326.389 508.884 339.942 507.816 341.971C506.1 345.214 504.51 358.333 506.466 359.174C507.066 359.432 508.782 359.306 511.23 359.12V360.207L511.122 401.392C511.122 401.392 511.614 426.653 510.264 429.061C508.914 431.469 508.554 436.519 508.554 436.519C508.554 436.519 503.154 446.48 498.876 450.485C498.847 450.516 498.815 450.545 498.78 450.569L498.648 449.633C498.648 449.633 493.506 456.13 482.131 455.763C482.131 455.763 475.285 460.219 485.437 460.459C495.588 460.699 508.554 460.099 508.554 460.099C508.554 460.099 517.607 446.288 525.191 448.089V458.555H527.513V447.921C528.59 447.212 529.511 446.291 530.222 445.214C530.933 444.138 531.417 442.928 531.647 441.659C531.846 440.35 531.7 439.012 531.224 437.777C530.749 436.542 529.96 435.452 528.935 434.615C528.475 434.199 528.105 433.691 527.85 433.125C527.595 432.559 527.46 431.946 527.453 431.325L527.369 431.397C527.369 431.187 527.315 430.97 527.291 430.748C526.625 425.344 525.791 414.194 528.737 405.944C532.775 394.631 533.999 378.875 531.059 369.496C530.11 366.498 529.331 363.449 528.725 360.363C528.653 359.973 528.587 359.6 528.527 359.252C530.537 359.524 532.527 359.925 534.485 360.453C541.294 362.332 556.192 362.681 568.911 362.579C568.941 362.927 568.977 363.293 569.019 363.659C569.246 366.205 569.72 368.723 570.435 371.177C572.031 375.981 572.763 397.159 572.763 397.159C572.763 397.159 574.821 414.572 573.699 421.657C573.099 425.596 572.499 429.553 572.157 433.528V433.606C572.157 433.606 568.785 443.214 566.32 448.432C566.26 448.564 566.194 448.696 566.134 448.822C565.476 448.882 564.829 449.025 564.208 449.248C564.208 449.248 560.902 455.853 557.608 456.946C554.314 458.039 555.406 461.636 562.864 460.315C570.321 458.994 581.583 457.913 581.583 457.913L582.069 451.176L584.361 448.306L583.761 455.025L586.203 454.544L585.879 446.372L589.629 441.677C589.629 441.677 594.159 437.642 587.427 429.704V429.878C587.355 429.764 587.289 429.643 587.211 429.529V429.493C586.095 427.764 585.207 424.54 586.833 418.817C589.773 408.477 591.483 399.092 591.483 399.092C591.483 399.092 598.046 373.951 590.157 362.056H590.505C589.696 360.382 589.125 358.604 588.807 356.772C588.767 356.556 588.731 356.334 588.699 356.106C594.537 355.77 600.266 354.713 604.94 352.431C604.922 352.407 602.108 292.746 599.78 283.247ZM525.665 241.635V241.755L524.465 241.815L525.665 241.635ZM521.549 242.205C521.352 242.249 521.167 242.338 521.009 242.464C520.493 243.194 520.169 244.043 520.067 244.932L518.195 244.511C518.195 244.511 516.881 244.229 514.991 243.911L514.097 243.01C516.557 242.806 519.113 242.506 521.549 242.205Z" fill="url(#paint1_linear_17_1227)"/>
<path d="M583.485 446.456L582.771 454.965L585.165 454.484L584.805 445.255L583.485 446.456Z" fill="#1D2366"/>
<path d="M528.869 406.058C525.983 414.284 526.799 425.386 527.447 430.778C527.687 432.772 527.909 433.985 527.909 433.985C527.909 433.985 523.595 443.82 523.235 444.192C522.875 444.565 510.54 452.1 510.54 452.1L501.918 457.138C501.918 457.138 493.17 453.301 497.364 451.98C498.221 451.636 498.993 451.11 499.626 450.437C503.826 446.444 509.1 436.519 509.1 436.519C509.1 436.519 509.46 431.481 510.78 429.085C512.1 426.689 511.62 401.512 511.62 401.512L511.722 360.471V355.121L528.131 355.241C528.234 357.057 528.471 358.864 528.839 360.645C529.428 363.72 530.191 366.76 531.125 369.748C534.017 379.109 532.817 394.787 528.869 406.058Z" fill="#FFD2D9"/>
<path opacity="0.1" d="M527.909 433.985C527.909 433.985 523.595 443.82 523.235 444.192C522.875 444.565 510.54 452.1 510.54 452.1L501.918 457.138C501.918 457.138 493.17 453.301 497.364 451.98C498.221 451.636 498.993 451.11 499.626 450.437L499.998 453.061L502.872 452.941L527.471 430.79C527.687 432.772 527.909 433.985 527.909 433.985Z" fill="black"/>
<path d="M527.609 431.349L502.872 453.65L499.998 453.77L499.398 449.567C499.398 449.567 494.37 456.039 483.198 455.679C483.198 455.679 476.491 460.117 486.432 460.357C496.374 460.597 509.069 459.996 509.069 459.996C509.069 459.996 517.937 446.186 525.359 447.987V458.417H527.639V447.891C528.699 447.177 529.604 446.256 530.299 445.183C530.993 444.109 531.464 442.907 531.683 441.647C531.88 440.349 531.74 439.022 531.277 437.793C530.814 436.565 530.042 435.477 529.037 434.633C528.588 434.212 528.23 433.703 527.984 433.139C527.738 432.574 527.611 431.965 527.609 431.349Z" fill="#1D2366"/>
<path d="M585.765 418.883C584.169 424.588 585.039 427.8 586.131 429.523V429.559C587.531 431.687 588.505 434.067 588.999 436.567L589.095 437.107L577.839 453.53L571.731 455.931C571.731 455.931 561.91 452.575 563.704 451.614C564.154 451.38 564.855 450.131 565.659 448.408C568.059 443.214 571.371 433.631 571.371 433.631V433.552C571.719 429.595 572.271 425.65 572.883 421.723C573.981 414.656 571.965 397.309 571.965 397.309C571.965 397.309 571.245 376.215 569.685 371.417C568.981 368.978 568.513 366.477 568.287 363.948C567.963 360.945 567.891 358.472 567.891 358.472C567.891 358.472 574.359 349.465 586.215 359.192C587.163 359.968 587.997 360.874 588.693 361.882C596.882 373.543 590.289 399.23 590.289 399.23C590.289 399.23 588.639 408.574 585.765 418.883Z" fill="#FFD2D9"/>
<path opacity="0.1" d="M589.113 437.107L577.857 453.529L571.749 455.931C571.749 455.931 561.928 452.575 563.722 451.614C564.172 451.38 564.874 450.131 565.678 448.408C569.835 448.372 571.989 452.335 571.989 452.335L577.257 451.494C577.257 451.494 584.205 437.828 585.765 436.993C587.325 436.158 586.005 430.754 586.005 430.754V429.379C586.047 429.427 586.083 429.481 586.131 429.529V429.565C587.531 431.693 588.505 434.073 588.999 436.573L589.113 437.107Z" fill="black"/>
<path d="M572.349 452.689C572.349 452.689 569.349 447.177 563.602 449.212C563.602 449.212 560.368 455.817 557.134 456.886C553.9 457.955 554.98 461.558 562.288 460.243C569.595 458.928 580.611 457.841 580.611 457.841L581.091 451.122L588.519 441.653C588.519 441.653 592.946 437.636 586.359 429.728V431.103C586.359 431.103 587.679 436.507 586.119 437.341C584.559 438.176 577.635 451.848 577.635 451.848L572.349 452.689Z" fill="#1D2366"/>
<path opacity="0.1" d="M528.149 355.229C528.252 357.045 528.489 358.852 528.857 360.633C522.101 359.642 515.831 360.135 511.721 360.459V355.109L528.149 355.229Z" fill="black"/>
<path opacity="0.1" d="M589.359 363.377C589.359 363.377 579.759 363.846 568.312 363.942C567.988 360.939 567.916 358.466 567.916 358.466C567.916 358.466 574.383 349.459 586.239 359.186C587.187 359.962 588.021 360.867 588.717 361.876C588.903 362.388 589.117 362.889 589.359 363.377Z" fill="black"/>
<path d="M589.359 362.296C589.359 362.296 547.312 364.332 534.497 360.735C521.681 357.139 508.979 360.255 507.066 359.42C505.152 358.586 506.706 345.514 508.386 342.277C510.065 339.041 519.281 306.31 519.281 306.31L528.149 260.039L537.49 257.463L538.15 257.277L554.428 252.786L566.355 249.489C566.355 249.489 590.073 342.157 588.039 348.99C587.3 351.607 587.181 354.36 587.691 357.03C588.001 358.854 588.563 360.626 589.359 362.296Z" fill="#1D2366"/>
<path d="M497.238 228.395C497.238 228.395 488.838 237.402 495.198 242.422C501.558 247.441 505.74 242.902 505.74 242.902L497.238 228.395Z" fill="#C7DAF5"/>
<path opacity="0.1" d="M497.238 228.395C497.238 228.395 488.838 237.402 495.198 242.422C501.558 247.441 505.74 242.902 505.74 242.902L497.238 228.395Z" fill="black"/>
<path d="M565.102 169.178C565.102 169.178 564.118 170.115 562.636 171.496C560.524 173.471 557.398 176.36 554.626 178.779C550.786 182.124 547.618 184.58 548.752 182.484C549.886 180.389 549.67 176.738 549.106 173.321C549.064 173.093 549.028 172.865 548.986 172.643C548.519 170.134 547.9 167.655 547.132 165.221C547.132 165.221 553.336 157.199 556.768 154.035C558.046 152.834 558.94 152.341 558.994 153.176C559.054 154.299 559.894 156.779 560.938 159.409C560.968 159.493 560.998 159.571 561.034 159.655C561.73 161.456 562.516 163.306 563.206 164.903C564.262 167.353 565.102 169.178 565.102 169.178Z" fill="#FFD2D9"/>
<path opacity="0.1" d="M561.034 159.655C560.451 162.793 559.036 165.717 556.938 168.121C554.84 170.525 552.135 172.321 549.106 173.321C548.629 170.58 547.97 167.874 547.132 165.221C547.132 165.221 558.814 150.12 558.994 153.176C559.036 154.335 559.948 156.905 561.034 159.655Z" fill="black"/>
<path opacity="0.1" d="M547.942 177.356L549.454 175.225C549.454 175.225 550.456 181.337 554.14 178.641C557.824 175.945 558.004 198.931 558.004 198.931L554.05 258.093L525.479 256.382L526.289 227.795L529.523 213.384L537.521 192.434L542.278 185.511L547.942 177.356Z" fill="black"/>
<path d="M558.004 199.297L554.404 252.792L554.026 258.46L538.096 257.505L537.497 257.469L525.497 256.749L526.307 228.155L529.541 213.744L537.539 192.794L542.296 185.871L547.96 177.687L549.472 175.561C549.472 175.561 550.474 181.674 554.158 178.978L554.236 178.924C557.836 176.642 558.004 199.297 558.004 199.297Z" fill="#1D2366"/>
<path d="M529.943 208.736C529.943 208.736 528.509 211.738 525.629 211.252C522.749 210.766 522.755 222.06 522.755 222.06C522.755 222.06 520.841 223.862 519.521 222.3C518.201 220.739 514.721 226.017 514.721 226.017L492.918 226.978C492.918 226.978 502.62 231.415 500.718 244.841C500.718 244.841 533.657 242.8 534.737 239.684C535.817 236.567 529.943 208.736 529.943 208.736Z" fill="white"/>
<path opacity="0.03" d="M529.943 208.736C529.943 208.736 528.509 211.738 525.629 211.252C522.749 210.766 522.755 222.06 522.755 222.06C522.755 222.06 520.841 223.862 519.521 222.3C518.201 220.739 514.721 226.017 514.721 226.017L492.918 226.978C492.918 226.978 502.62 231.415 500.718 244.841C500.718 244.841 533.657 242.8 534.737 239.684C535.817 236.567 529.943 208.736 529.943 208.736Z" fill="black"/>
<path d="M466.579 234.033L472.327 238.945L519.641 248.894L513.773 242.902L466.579 234.033Z" fill="white"/>
<path d="M548.032 179.248C547.246 180.449 544.996 186.597 543.118 191.965C541.552 196.439 540.244 200.372 540.244 200.372C540.244 200.372 537.191 220.271 535.631 223.868C534.071 227.464 534.917 241.491 534.917 241.491L529.103 276.131C529.103 276.131 526.469 293.995 522.401 304.665C518.387 315.167 513.917 320.09 513.779 320.247C515.579 317.809 525.389 269.808 525.389 269.808L528.629 209.271C528.629 209.271 529.103 203.518 529.583 198.6C530.063 193.683 539.782 186.97 539.782 186.97L549.154 173.634C550.096 174.895 549.466 177.092 548.032 179.248Z" fill="white"/>
<path d="M523.595 257.049C523.595 257.049 509.796 256.448 503.112 248.414C496.428 240.38 518.561 245.208 518.561 245.208L524.315 246.529L523.595 257.049Z" fill="#FFD2D9"/>
<path opacity="0.1" d="M588.039 348.996C587.3 351.613 587.181 354.366 587.691 357.036C572.637 358.105 556.534 354.034 556.534 354.034C553.534 356.796 545.632 360.867 545.632 360.867L541.324 307.427C538.57 300.221 537.49 262.471 537.49 262.471C537.49 262.471 537.736 260.495 538.09 257.535C538.09 257.463 538.09 257.385 538.12 257.313C539.194 249.045 541.324 233.523 542.368 231.427C543.808 228.545 537.94 220.877 537.94 220.877L540.61 198.09L540.934 195.34C546.562 192.824 550.876 184.79 550.876 184.79L554.188 178.984C557.788 176.672 557.974 199.327 557.974 199.327L554.374 252.822L566.301 249.525C566.301 249.525 590.073 342.163 588.039 348.996Z" fill="black"/>
<path d="M603.488 352.689C587.079 360.843 557.254 353.29 557.254 353.29C554.254 356.052 546.352 360.123 546.352 360.123L542.038 306.682C539.29 299.477 538.21 261.726 538.21 261.726C538.21 261.726 541.678 233.559 543.118 230.683C543.538 229.842 543.334 228.593 542.836 227.248C540.388 220.846 539.488 213.956 540.208 207.139L541.36 197.345L541.678 194.601C547.312 192.079 551.626 184.045 551.626 184.045L554.626 178.785L560.146 169.094L562.762 164.507L563.206 164.909L566.595 167.983C566.595 167.983 568.035 169.184 570.195 170.986C574.893 174.949 583.011 181.926 587.199 186.195C590.883 189.954 592.046 204.575 592.382 215.581C592.604 222.829 592.472 228.509 592.472 228.509C588.759 234.628 598.472 283.751 598.472 283.751C600.734 293.244 603.488 352.689 603.488 352.689Z" fill="white"/>
<path opacity="0.03" d="M571.989 183.925C571.989 183.925 560.728 205.38 562.036 213.534C563.344 221.688 567.064 230.917 565.27 233.073C564.653 233.889 563.856 234.552 562.942 235.009C562.027 235.467 561.018 235.706 559.996 235.709C558.196 235.829 553.396 239.185 553.396 239.545C553.396 239.906 548.962 239.906 544.996 241.587C541.03 243.268 535.175 244.223 535.175 244.223C535.175 244.223 523.775 243.863 522.713 244.944C521.651 246.024 520.559 252.491 522.833 257.649C525.107 262.807 527.633 266.656 529.541 267.359C531.449 268.061 543.556 264.002 553.378 263.041C563.2 262.081 573.861 254.293 573.861 254.293C573.861 254.293 585.603 250.089 587.661 243.022C589.719 235.955 585.147 197.111 585.147 197.111C585.147 197.111 581.691 179.008 571.989 183.925Z" fill="black"/>
<path opacity="0.03" d="M570.549 182.124C570.549 182.124 559.288 203.584 560.608 211.732C561.928 219.881 565.636 229.116 563.836 231.277C563.221 232.095 562.426 232.758 561.512 233.216C560.598 233.673 559.59 233.912 558.568 233.913C556.768 234.033 551.968 237.39 551.968 237.75C551.968 238.11 547.534 238.11 543.568 239.786C539.602 241.461 533.747 242.422 533.747 242.422C533.747 242.422 522.347 242.061 521.291 243.142C520.235 244.223 519.131 250.696 521.411 255.848C523.691 261 526.211 264.855 528.119 265.557C530.027 266.26 542.134 262.201 551.956 261.246C561.778 260.291 572.439 252.491 572.439 252.491C572.439 252.491 584.175 248.288 586.209 241.227C588.243 234.165 583.695 195.31 583.695 195.31C583.695 195.31 580.251 177.212 570.549 182.124Z" fill="black"/>
<path d="M571.635 182.844C571.635 182.844 560.374 204.305 561.694 212.453C563.014 220.601 566.721 229.836 564.928 231.992C564.313 232.811 563.517 233.476 562.602 233.935C561.687 234.394 560.677 234.633 559.654 234.634C557.854 234.754 553.054 238.11 553.054 238.465C553.054 238.819 548.626 238.825 544.654 240.506C540.682 242.187 534.833 243.142 534.833 243.142C534.833 243.142 523.433 242.782 522.371 243.863C521.309 244.943 520.217 251.416 522.491 256.568C524.765 261.72 527.291 265.575 529.199 266.278C531.107 266.98 543.214 262.921 553.036 261.96C562.858 261 573.519 253.212 573.519 253.212C573.519 253.212 585.261 249.009 587.319 241.941C589.377 234.874 584.835 196.03 584.835 196.03C584.835 196.03 581.331 177.957 571.635 182.844Z" fill="white"/>
<path opacity="0.1" d="M571.389 240.404C571.389 240.404 562.39 238.603 565.521 241.605C568.653 244.607 568.635 247.237 572.469 247.117C576.303 246.997 571.389 240.404 571.389 240.404Z" fill="black"/>
<path opacity="0.1" d="M586.599 305.001C586.599 305.001 582.531 307.757 590.313 314.11C598.094 320.463 586.599 305.001 586.599 305.001Z" fill="black"/>
<path opacity="0.1" d="M578.835 327.656C578.835 328.017 577.395 340.866 582.783 344.079C588.171 347.291 578.835 327.656 578.835 327.656Z" fill="black"/>
<path d="M493.29 226.948C488.946 227.098 479.563 228.425 484.428 237.51C488.73 245.55 495.96 240.176 500.028 236.099C499.036 232.298 496.624 229.022 493.29 226.948Z" fill="#FFD2D9"/>
<path opacity="0.1" d="M570.195 171.352C565.587 174.504 561.724 177.164 560.968 177.717C558.904 179.248 554.968 188.237 552.43 192.824C550.408 196.517 543.838 197.466 541.36 197.7L541.678 194.956C547.312 192.434 551.626 184.4 551.626 184.4L562.762 164.861L566.595 168.349C566.595 168.349 568.035 169.55 570.195 171.352Z" fill="black"/>
<path d="M570.195 170.992C565.587 174.144 561.724 176.804 560.968 177.362C558.904 178.888 554.968 187.876 552.43 192.464C550.408 196.157 543.838 197.105 541.36 197.339L541.678 194.595C547.312 192.073 551.626 184.039 551.626 184.039L562.762 164.501L566.595 167.977C566.595 167.977 568.035 169.166 570.195 170.992Z" fill="#DCE7FF"/>
<path d="M561.328 155.692C561.33 159.296 560.238 162.817 558.196 165.786C555.784 169.296 552.195 171.825 548.079 172.913C543.963 174.002 539.594 173.578 535.765 171.718C531.935 169.859 528.898 166.686 527.205 162.778C525.512 158.869 525.275 154.482 526.538 150.413C527.8 146.345 530.478 142.864 534.085 140.602C537.693 138.341 541.991 137.448 546.2 138.087C550.409 138.725 554.249 140.853 557.025 144.083C559.8 147.313 561.327 151.432 561.328 155.692Z" fill="#FFD2D9"/>
<path opacity="0.1" d="M592.382 215.587C589.946 214.087 587.962 211.954 586.641 209.415C585.639 207.433 584.973 205.145 583.263 203.74C581.721 202.479 579.663 202.173 577.743 201.609C571.431 199.741 566.139 193.977 565.941 187.396C565.845 184.298 566.811 181.205 566.373 178.137C566.124 176.4 565.434 174.757 564.369 173.363C563.841 172.697 563.261 172.072 562.636 171.496C561.796 170.703 560.914 169.935 560.146 169.094C559.662 168.574 559.239 167.999 558.886 167.383C558.6 166.878 558.369 166.345 558.196 165.792C556.996 162.117 558.088 157.757 556.768 154.041L556.696 153.836C556.198 152.515 555.184 151.194 553.774 151.092C552.364 150.99 551.158 152.161 549.814 152.684C547 153.776 543.964 151.915 541.618 150.018C539.272 148.12 536.626 145.952 533.645 146.373C531.671 146.655 530.111 148 528.293 148.697C527.882 148.856 527.459 148.978 527.027 149.063C528.565 145.223 531.392 142.039 535.021 140.059C538.65 138.078 542.855 137.424 546.914 138.209C550.973 138.994 554.632 141.169 557.262 144.361C559.892 147.552 561.33 151.561 561.328 155.698C561.33 156.947 561.199 158.193 560.938 159.415C560.968 159.499 560.998 159.577 561.034 159.661C561.73 161.462 562.516 163.312 563.206 164.909L566.595 167.983C566.595 167.983 568.035 169.184 570.195 170.985C574.893 174.948 583.011 181.926 587.199 186.195C590.882 189.966 592.034 204.581 592.382 215.587Z" fill="black"/>
<path d="M528.083 137.726C528.941 135.979 529.367 134.021 530.393 132.364C531.899 129.962 534.527 128.425 537.227 127.495C544.276 125.063 559.174 121.532 563.626 127.495C564.502 128.695 565.228 130.028 566.44 130.857C567.364 131.488 568.479 131.758 569.493 132.232C572.331 133.565 574.143 136.471 575.109 139.438C576.075 142.404 576.363 145.586 577.071 148.643C577.977 152.564 579.567 156.28 581.151 159.973C583.017 164.332 584.997 168.854 588.597 171.934C593.511 176.137 594.597 182.088 599.156 186.699C604.556 192.176 604.382 201.212 601.598 208.388C601.232 209.33 600.818 210.315 600.962 211.318C601.106 212.321 601.85 213.233 602.552 214.032L605.504 217.365C598.52 219.052 590.619 215.401 587.367 208.994C586.365 207.013 585.699 204.731 583.983 203.32C582.447 202.059 580.383 201.759 578.469 201.194C572.157 199.321 566.866 193.551 566.668 186.97C566.572 183.877 567.538 180.785 567.1 177.723C566.856 175.974 566.163 174.319 565.09 172.919C563.44 170.763 560.95 169.316 559.606 166.914C557.332 162.897 559.06 157.679 557.422 153.368C556.918 152.047 555.91 150.726 554.5 150.624C553.09 150.522 551.884 151.693 550.534 152.215C547.726 153.308 544.69 151.453 542.344 149.549C539.999 147.646 537.353 145.484 534.365 145.91C532.391 146.187 530.837 147.532 529.019 148.234C527.675 148.751 524.951 149.213 523.775 148.078C521.291 145.79 527.045 139.864 528.083 137.726Z" fill="#591D4B"/>
<path opacity="0.1" d="M589.035 207.013C588.027 205.031 587.367 202.75 585.651 201.344C584.115 200.084 582.051 199.777 580.131 199.213C573.825 197.345 568.533 191.575 568.329 184.994C568.233 181.902 569.199 178.803 568.767 175.741C568.516 174.004 567.824 172.361 566.757 170.967C565.102 168.812 562.612 167.365 561.274 164.963C559 160.952 560.728 155.734 559.084 151.417C558.586 150.102 557.572 148.781 556.168 148.673C554.764 148.564 553.546 149.747 552.202 150.27C549.394 151.363 546.352 149.501 544.012 147.604C541.672 145.706 539.014 143.539 536.033 143.959C534.059 144.241 532.499 145.586 530.687 146.283C529.343 146.799 526.613 147.267 525.437 146.133C522.965 143.731 528.719 137.816 529.751 135.691C530.609 133.937 531.035 131.986 532.067 130.329C532.121 130.239 532.181 130.149 532.241 130.058C531.469 130.698 530.803 131.456 530.267 132.304C529.241 133.961 528.815 135.907 527.957 137.666C526.919 139.792 521.165 145.724 523.643 148.108C524.843 149.249 527.543 148.781 528.887 148.264C530.687 147.562 532.259 146.217 534.233 145.94C537.233 145.514 539.872 147.682 542.212 149.579C544.552 151.477 547.612 153.338 550.408 152.245C551.752 151.723 552.928 150.546 554.368 150.654C555.808 150.762 556.768 152.077 557.29 153.398C558.928 157.709 557.2 162.927 559.474 166.944C560.818 169.304 563.308 170.781 564.958 172.949C566.031 174.349 566.724 176.004 566.967 177.753C567.405 180.815 566.44 183.907 566.536 187C566.733 193.605 572.025 199.351 578.337 201.224C580.239 201.789 582.315 202.089 583.851 203.35C585.573 204.761 586.251 207.043 587.235 209.024C590.487 215.431 598.388 219.082 605.372 217.395L603.98 215.821C597.926 215.911 591.801 212.465 589.035 207.013Z" fill="black"/>
<path opacity="0.1" d="M547.672 179.608C546.886 180.809 544.636 186.958 542.758 192.326C541 191.641 539.405 187.276 539.405 187.276L548.776 173.934C549.736 175.255 549.106 177.446 547.672 179.608Z" fill="black"/>
<path d="M548.032 179.248C547.246 180.449 544.996 186.597 543.118 191.965C541.36 191.287 539.764 186.916 539.764 186.916L549.136 173.579C550.096 174.894 549.466 177.092 548.032 179.248Z" fill="#DCE7FF"/>
<path d="M493.542 240.59L488.346 224.192C488.285 224 488.262 223.798 488.279 223.597C488.295 223.396 488.352 223.2 488.444 223.021C488.537 222.842 488.664 222.683 488.818 222.553C488.972 222.423 489.15 222.325 489.342 222.264C489.729 222.144 490.148 222.181 490.507 222.367C490.867 222.554 491.138 222.875 491.262 223.261L496.458 239.642L495.942 243.07L493.542 240.59Z" fill="#BE8B87"/>
<path opacity="0.1" d="M488.838 222.751C489.226 222.628 489.646 222.664 490.007 222.851C490.368 223.038 490.64 223.36 490.764 223.747L495.96 240.128L495.57 242.698L495.948 243.094L496.464 239.666L491.238 223.285C491.114 222.899 490.843 222.578 490.483 222.391C490.124 222.204 489.705 222.168 489.318 222.288C488.993 222.394 488.712 222.605 488.52 222.889C488.622 222.834 488.729 222.788 488.838 222.751Z" fill="white"/>
<path d="M493.542 240.59L496.458 239.666L496.032 242.476L495.942 243.094L495.09 242.205L493.542 240.59Z" fill="#EFC8C4"/>
<path d="M495.09 242.205C495.141 242.141 495.204 242.088 495.276 242.049C495.318 242.023 495.367 242.009 495.417 242.009C495.467 242.009 495.516 242.023 495.558 242.049C495.599 242.099 495.633 242.153 495.66 242.212C495.7 242.278 495.754 242.334 495.818 242.377C495.883 242.419 495.956 242.447 496.032 242.458L495.942 243.058L495.09 242.205Z" fill="#727A9C"/>
<path d="M488.316 230.016C488.316 230.016 498.738 229.956 496.284 234.394C493.83 238.831 489.996 239.365 489.996 239.365L488.316 230.016Z" fill="#FFD2D9"/>
<path d="M423.501 30.8754H423.051C405.147 30.8754 389.314 40.3565 380.206 54.3471C371.099 40.3565 355.265 30.8754 337.362 30.8754H336.912C323.476 31.0035 310.633 36.4332 301.175 45.9845C291.717 55.5357 286.407 68.4368 286.4 81.884C286.4 98.5826 293.707 122.277 307.957 141.773C335.106 178.923 380.206 211.426 380.206 211.426C380.206 211.426 425.307 178.93 452.45 141.773C466.705 122.277 474.007 98.5826 474.007 81.884C474 68.4378 468.691 55.5376 459.234 45.9865C449.777 36.4355 436.936 31.0051 423.501 30.8754ZM417.063 144.632C415.024 144.624 413.035 143.999 411.357 142.84C409.679 141.68 408.391 140.04 407.661 138.135H396.958C396.253 138.13 395.567 137.906 394.996 137.492C394.425 137.079 393.997 136.497 393.772 135.829L390.484 125.915L380.08 162.297C379.878 162.997 379.453 163.613 378.871 164.051C378.289 164.49 377.581 164.728 376.852 164.729H376.642C375.882 164.692 375.158 164.395 374.59 163.888C374.022 163.381 373.645 162.694 373.522 161.943L362.801 97.4058L354.965 135.595C354.785 136.32 354.368 136.964 353.78 137.425C353.192 137.885 352.466 138.135 351.719 138.135H336.642C336.19 138.154 335.739 138.081 335.315 137.921C334.892 137.761 334.506 137.517 334.179 137.204C333.853 136.891 333.593 136.515 333.415 136.098C333.238 135.682 333.146 135.234 333.146 134.781C333.146 134.328 333.238 133.88 333.415 133.464C333.593 133.047 333.853 132.671 334.179 132.358C334.506 132.045 334.892 131.801 335.315 131.641C335.739 131.481 336.19 131.408 336.642 131.428H349.079L360.179 80.0826C360.361 79.3235 360.801 78.6513 361.424 78.1809C362.046 77.7105 362.813 77.4712 363.592 77.5038C364.372 77.5364 365.116 77.839 365.697 78.3598C366.278 78.8805 366.66 79.5872 366.779 80.3588L377.728 146.193L387.052 113.642C387.246 112.957 387.657 112.352 388.222 111.919C388.788 111.486 389.478 111.248 390.19 111.24H390.256C390.961 111.24 391.648 111.463 392.219 111.878C392.79 112.292 393.216 112.875 393.436 113.546L399.382 131.446H407.529C408.109 129.684 409.163 128.117 410.576 126.918C411.989 125.718 413.705 124.933 415.536 124.648C417.367 124.363 419.241 124.59 420.951 125.304C422.661 126.017 424.141 127.19 425.227 128.692C426.313 130.194 426.964 131.968 427.107 133.817C427.249 135.665 426.879 137.518 426.036 139.169C425.193 140.821 423.911 142.207 422.331 143.175C420.751 144.143 418.934 144.656 417.081 144.656L417.063 144.632Z" fill="#373E11"/>
</g>
<defs>
<linearGradient id="paint0_linear_17_1227" x1="213.79" y1="465.274" x2="213.79" y2="95.7906" gradientUnits="userSpaceOnUse">
<stop stop-color="#808080" stop-opacity="0.25"/>
<stop offset="0.54" stop-color="#808080" stop-opacity="0.12"/>
<stop offset="1" stop-color="#808080" stop-opacity="0.1"/>
</linearGradient>
<linearGradient id="paint1_linear_17_1227" x1="536.039" y1="460.603" x2="536.039" y2="123.147" gradientUnits="userSpaceOnUse">
<stop stop-color="#808080" stop-opacity="0.25"/>
<stop offset="0.54" stop-color="#808080" stop-opacity="0.12"/>
<stop offset="1" stop-color="#808080" stop-opacity="0.1"/>
</linearGradient>
<clipPath id="clip0_17_1227">
<rect width="663" height="470" fill="white"/>
</clipPath>
</defs>
</svg>
