<svg width="748" height="511" viewBox="0 0 748 511" fill="none" xmlns="http://www.w3.org/2000/svg">
<g clip-path="url(#clip0_3_99)">
<path opacity="0.1" d="M747.188 214.413C742.637 232.829 719.271 242.06 706.181 255.798C681.512 281.691 691.119 319.503 706.77 349.786C712.009 359.926 717.955 370.662 715.735 381.534C713.031 394.834 698.656 404.556 683.562 409.711C656.058 419.098 623.118 416.861 597.834 403.875C575.988 392.656 560.337 374.436 538.118 363.694C500.928 345.776 453.595 352.573 413.21 364.892C384.645 373.625 353.408 384.989 325.02 375.869C305.047 369.445 291.236 353.81 283.711 337.271C280.083 329.271 277.444 320.609 270.509 314.27C266.384 310.495 261.001 307.819 255.493 305.569C205.148 284.962 141.548 295.998 92.6757 273.14C59.6577 257.708 38.5123 228.596 29.1544 198.235C19.7964 167.874 20.8835 136.04 23.2606 104.77C24.9502 82.527 27.9822 58.832 45.1788 41.6789C63.3708 23.538 94.5879 16.8194 122.812 20.2409C151.037 23.6623 176.609 35.9809 199.117 50.4517C227.276 68.5468 253.326 91.0708 287.857 98.3978C311.373 103.389 336.107 100.655 360.363 99.7062C400.911 98.1296 441.473 101.669 481.793 105.489C501.439 107.367 521.15 109.336 540.626 112.188C544.991 112.825 549.357 113.512 553.723 114.249C555.91 114.622 558.097 115.008 560.272 115.407C561.974 115.714 563.67 116.061 565.366 116.369C568.042 116.888 570.71 117.433 573.369 118.004C581.004 119.64 588.568 121.491 596.053 123.597C622.077 130.931 642.941 144.251 667.518 153.553C683.536 159.618 701.001 161.292 716.167 169.012C734.831 178.491 751.975 195.049 747.188 214.413Z" fill="#373E11"/>
<path d="M615.535 312.543C652.509 312.543 682.481 282.6 682.481 245.664C682.481 208.728 652.509 178.786 615.535 178.786C578.562 178.786 548.589 208.728 548.589 245.664C548.589 282.6 578.562 312.543 615.535 312.543Z" fill="#373E11"/>
<path d="M544.339 294.271C581.312 294.271 611.285 264.328 611.285 227.392C611.285 190.456 581.312 160.514 544.339 160.514C507.365 160.514 477.392 190.456 477.392 227.392C477.392 264.328 507.365 294.271 544.339 294.271Z" fill="#373E11"/>
<path d="M465.965 294.925C502.939 294.925 532.911 264.983 532.911 228.047C532.911 191.111 502.939 161.168 465.965 161.168C428.992 161.168 399.019 191.111 399.019 228.047C399.019 264.983 428.992 294.925 465.965 294.925Z" fill="#373E11"/>
<path d="M440.491 312.543C477.465 312.543 507.437 282.6 507.437 245.664C507.437 208.728 477.465 178.786 440.491 178.786C403.518 178.786 373.545 208.728 373.545 245.664C373.545 282.6 403.518 312.543 440.491 312.543Z" fill="#373E11"/>
<path d="M397.382 318.417C434.355 318.417 464.328 288.475 464.328 251.539C464.328 214.603 434.355 184.66 397.382 184.66C360.408 184.66 330.435 214.603 330.435 251.539C330.435 288.475 360.408 318.417 397.382 318.417Z" fill="#373E11"/>
<path d="M379.746 265.565C416.72 265.565 446.693 235.622 446.693 198.686C446.693 161.75 416.72 131.808 379.746 131.808C342.773 131.808 312.8 161.75 312.8 198.686C312.8 235.622 342.773 265.565 379.746 265.565Z" fill="#373E11"/>
<path d="M399.34 204.227C436.313 204.227 466.286 174.285 466.286 137.349C466.286 100.413 436.313 70.4701 399.34 70.4701C362.366 70.4701 332.393 100.413 332.393 137.349C332.393 174.285 362.366 204.227 399.34 204.227Z" fill="#373E11"/>
<path d="M436.569 204.227C473.542 204.227 503.515 174.285 503.515 137.349C503.515 100.413 473.542 70.4701 436.569 70.4701C399.595 70.4701 369.622 100.413 369.622 137.349C369.622 174.285 399.595 204.227 436.569 204.227Z" fill="#373E11"/>
<path d="M458.126 176.823C495.1 176.823 525.073 146.88 525.073 109.944C525.073 73.0084 495.1 43.0658 458.126 43.0658C421.153 43.0658 391.18 73.0084 391.18 109.944C391.18 146.88 421.153 176.823 458.126 176.823Z" fill="#373E11"/>
<path d="M512.991 206.838C549.964 206.838 579.937 176.895 579.937 139.959C579.937 103.023 549.964 73.0804 512.991 73.0804C476.017 73.0804 446.044 103.023 446.044 139.959C446.044 176.895 476.017 206.838 512.991 206.838Z" fill="#373E11"/>
<path d="M641.009 265.565C677.982 265.565 707.955 235.622 707.955 198.686C707.955 161.75 677.982 131.808 641.009 131.808C604.036 131.808 574.063 161.75 574.063 198.686C574.063 235.622 604.036 265.565 641.009 265.565Z" fill="#373E11"/>
<path d="M602.471 232.286C639.444 232.286 669.417 202.343 669.417 165.407C669.417 128.471 639.444 98.5287 602.471 98.5287C565.497 98.5287 535.524 128.471 535.524 165.407C535.524 202.343 565.497 232.286 602.471 232.286Z" fill="#373E11"/>
<path d="M577.651 199.007C614.625 199.007 644.598 169.064 644.598 132.128C644.598 95.1922 614.625 65.2496 577.651 65.2496C540.678 65.2496 510.705 95.1922 510.705 132.128C510.705 169.064 540.678 199.007 577.651 199.007Z" fill="#373E11"/>
<path d="M530.626 148.764C567.599 148.764 597.572 118.822 597.572 81.8859C597.572 44.9499 567.599 15.0073 530.626 15.0073C493.653 15.0073 463.68 44.9499 463.68 81.8859C463.68 118.822 493.653 148.764 530.626 148.764Z" fill="#373E11"/>
<path d="M618.148 204.227C655.121 204.227 685.094 174.285 685.094 137.349C685.094 100.413 655.121 70.4701 618.148 70.4701C581.175 70.4701 551.202 100.413 551.202 137.349C551.202 174.285 581.175 204.227 618.148 204.227Z" fill="#373E11"/>
<g opacity="0.1">
<path d="M615.535 312.543C652.508 312.543 682.481 282.6 682.481 245.664C682.481 208.728 652.508 178.786 615.535 178.786C578.562 178.786 548.589 208.728 548.589 245.664C548.589 282.6 578.562 312.543 615.535 312.543Z" fill="black"/>
<path d="M544.339 294.271C581.312 294.271 611.285 264.328 611.285 227.392C611.285 190.456 581.312 160.514 544.339 160.514C507.365 160.514 477.392 190.456 477.392 227.392C477.392 264.328 507.365 294.271 544.339 294.271Z" fill="black"/>
<path d="M465.965 294.925C502.939 294.925 532.911 264.983 532.911 228.047C532.911 191.111 502.939 161.168 465.965 161.168C428.992 161.168 399.019 191.111 399.019 228.047C399.019 264.983 428.992 294.925 465.965 294.925Z" fill="black"/>
<path d="M440.491 312.543C477.465 312.543 507.437 282.6 507.437 245.664C507.437 208.728 477.465 178.786 440.491 178.786C403.518 178.786 373.545 208.728 373.545 245.664C373.545 282.6 403.518 312.543 440.491 312.543Z" fill="black"/>
<path d="M397.382 318.417C434.355 318.417 464.328 288.475 464.328 251.539C464.328 214.603 434.355 184.66 397.382 184.66C360.408 184.66 330.435 214.603 330.435 251.539C330.435 288.475 360.408 318.417 397.382 318.417Z" fill="black"/>
<path d="M379.746 265.565C416.72 265.565 446.693 235.622 446.693 198.686C446.693 161.75 416.72 131.808 379.746 131.808C342.773 131.808 312.8 161.75 312.8 198.686C312.8 235.622 342.773 265.565 379.746 265.565Z" fill="black"/>
<path d="M399.34 204.227C436.313 204.227 466.286 174.285 466.286 137.349C466.286 100.413 436.313 70.4701 399.34 70.4701C362.366 70.4701 332.393 100.413 332.393 137.349C332.393 174.285 362.366 204.227 399.34 204.227Z" fill="black"/>
<path d="M436.569 204.227C473.542 204.227 503.515 174.285 503.515 137.349C503.515 100.413 473.542 70.4701 436.569 70.4701C399.595 70.4701 369.622 100.413 369.622 137.349C369.622 174.285 399.595 204.227 436.569 204.227Z" fill="black"/>
<path d="M458.126 176.823C495.1 176.823 525.073 146.88 525.073 109.944C525.073 73.0084 495.1 43.0658 458.126 43.0658C421.153 43.0658 391.18 73.0084 391.18 109.944C391.18 146.88 421.153 176.823 458.126 176.823Z" fill="black"/>
<path d="M512.991 206.838C549.964 206.838 579.937 176.895 579.937 139.959C579.937 103.023 549.964 73.0804 512.991 73.0804C476.017 73.0804 446.044 103.023 446.044 139.959C446.044 176.895 476.017 206.838 512.991 206.838Z" fill="black"/>
<path d="M641.009 265.565C677.982 265.565 707.955 235.622 707.955 198.686C707.955 161.75 677.982 131.808 641.009 131.808C604.036 131.808 574.063 161.75 574.063 198.686C574.063 235.622 604.036 265.565 641.009 265.565Z" fill="black"/>
<path d="M602.471 232.286C639.444 232.286 669.417 202.343 669.417 165.407C669.417 128.471 639.444 98.5287 602.471 98.5287C565.497 98.5287 535.524 128.471 535.524 165.407C535.524 202.343 565.497 232.286 602.471 232.286Z" fill="black"/>
<path d="M577.651 199.007C614.625 199.007 644.598 169.064 644.598 132.128C644.598 95.1922 614.625 65.2496 577.651 65.2496C540.678 65.2496 510.705 95.1922 510.705 132.128C510.705 169.064 540.678 199.007 577.651 199.007Z" fill="black"/>
<path d="M530.626 148.764C567.599 148.764 597.572 118.822 597.572 81.8859C597.572 44.9499 567.599 15.0073 530.626 15.0073C493.653 15.0073 463.68 44.9499 463.68 81.8859C463.68 118.822 493.653 148.764 530.626 148.764Z" fill="black"/>
<path d="M618.148 204.227C655.121 204.227 685.094 174.285 685.094 137.349C685.094 100.413 655.121 70.4701 618.148 70.4701C581.175 70.4701 551.202 100.413 551.202 137.349C551.202 174.285 581.175 204.227 618.148 204.227Z" fill="black"/>
</g>
<path d="M582.471 362.864C582.471 362.864 623.4 328.499 603.152 279.565L582.903 271.989L560.933 339.561L582.471 362.864Z" fill="#67647E"/>
<path opacity="0.1" d="M584.652 269.66L589.498 271.472L567.927 337.814L586.747 358.173C585.189 359.723 584.22 360.535 584.22 360.535L562.675 337.232L584.652 269.66Z" fill="black"/>
<path opacity="0.1" d="M379.491 510.993C580.76 510.993 743.92 483.707 743.92 450.048C743.92 416.389 580.76 389.103 379.491 389.103C178.222 389.103 15.0618 416.389 15.0618 450.048C15.0618 483.707 178.222 510.993 379.491 510.993Z" fill="#373E11"/>
<path d="M659.993 355.654C659.993 355.654 646.68 368.954 654.198 388.691C661.716 408.428 641.317 441.243 641.317 441.243L641.972 441.138C669.312 436.317 682.9 405.079 667.695 381.868C662.01 373.252 657.367 363.125 659.993 355.654Z" fill="#373E11"/>
<path d="M659.993 355.654C659.993 355.654 652.476 371.957 659.993 385.257C667.511 398.557 661.303 435.879 641.31 441.243" stroke="#535461" stroke-miterlimit="10"/>
<path d="M683.706 409.449C683.706 409.449 668.513 407.035 667.131 420.636C665.75 434.237 637.912 436.121 637.912 436.121L638.436 436.467C661.415 451.514 683.379 446.064 680.065 426.059C678.84 418.621 678.939 411.15 683.706 409.449Z" fill="#373E11"/>
<path opacity="0.2" d="M683.706 409.449C683.706 409.449 668.513 407.035 667.131 420.636C665.75 434.237 637.912 436.121 637.912 436.121L638.436 436.467C661.415 451.514 683.379 446.064 680.065 426.059C678.84 418.621 678.939 411.15 683.706 409.449Z" fill="#F5F5F5"/>
<path d="M683.706 409.449C683.706 409.449 671.919 412.066 672.881 422.749C673.844 433.432 655.37 446.3 637.918 436.121" stroke="#535461" stroke-miterlimit="10"/>
<path d="M397.631 291.288L402.948 312.549C402.948 312.549 440.517 317.443 465.566 314.368C469.994 313.74 474.245 312.208 478.054 309.867C480.169 308.618 483.509 308.075 488.073 311.489C495.892 317.377 534.267 364.479 528.052 413.348C527.57 417.03 525.886 420.451 523.262 423.081C520.637 425.711 517.219 427.404 513.534 427.897C505.882 428.939 498.566 431.704 492.14 435.983L473.149 448.616L667.871 444.363L647.656 419.916C647.656 419.916 633.825 408.226 623.184 407.159C620.08 406.852 617.519 404.006 615.45 400.14C603.328 377.472 588.83 356.158 573.113 335.806C561.666 320.982 552.06 305.36 552.957 295.547C555.085 272.159 552.957 233.895 552.957 233.895L512.526 228.583C512.526 228.583 517.843 279.61 468.899 292.361C419.955 305.111 397.631 291.288 397.631 291.288Z" fill="#67647E"/>
<g opacity="0.1">
<path d="M430.616 300.859C430.616 300.859 452.96 314.675 501.91 301.919C550.861 289.162 545.537 238.141 545.537 238.141L553.232 239.142C553.088 235.871 552.976 233.908 552.976 233.908L512.545 228.596C512.545 228.596 517.863 279.624 468.919 292.374C419.974 305.124 397.624 291.314 397.624 291.314L402.941 312.575C402.941 312.575 417.296 314.446 434.178 315.146L430.616 300.859Z" fill="black"/>
<path d="M525.125 445.548C531.552 441.268 538.867 438.504 546.519 437.462C550.196 436.974 553.609 435.29 556.232 432.671C558.855 430.052 560.541 426.643 561.031 422.971C567.278 374.103 528.884 326.915 521.085 321.054C512.572 314.675 508.315 322.114 508.315 322.114C505.302 322.903 502.239 323.487 499.147 323.86C512.938 342.178 532.669 377.315 528.052 413.4C527.562 417.073 525.876 420.482 523.253 423.101C520.63 425.72 517.217 427.403 513.541 427.891C505.888 428.933 498.573 431.697 492.146 435.977L473.156 448.609L522.113 447.543L525.125 445.548Z" fill="black"/>
</g>
<path d="M430.216 394.422C430.216 394.422 426.15 380.632 430.976 370.478C433.028 366.233 433.646 361.438 432.738 356.812C432.281 354.617 431.623 352.469 430.773 350.395" stroke="#535461" stroke-width="2" stroke-miterlimit="10"/>
<path d="M433.812 343.977C433.812 345.665 430.747 350.571 430.747 350.571C430.747 350.571 427.702 345.665 427.702 343.977C427.702 343.165 428.025 342.386 428.599 341.812C429.174 341.238 429.954 340.915 430.767 340.915C431.579 340.915 432.359 341.238 432.934 341.812C433.508 342.386 433.831 343.165 433.831 343.977H433.812Z" fill="#373E11"/>
<path d="M438.88 353.338C437.963 354.758 432.724 357.211 432.724 357.211C432.724 357.211 432.823 351.435 433.74 350.015C433.952 349.665 434.233 349.361 434.566 349.121C434.898 348.881 435.276 348.71 435.676 348.619C436.076 348.527 436.49 348.517 436.894 348.588C437.298 348.659 437.683 348.811 438.027 349.034C438.371 349.257 438.667 349.547 438.897 349.886C439.127 350.225 439.287 350.607 439.366 351.009C439.446 351.411 439.444 351.825 439.36 352.226C439.277 352.628 439.114 353.008 438.88 353.345V353.338Z" fill="#373E11"/>
<path d="M438.657 369.327C437.145 370.086 431.389 369.563 431.389 369.563C431.389 369.563 434.388 364.623 435.901 363.865C436.26 363.684 436.652 363.575 437.053 363.546C437.454 363.516 437.858 363.566 438.24 363.692C438.622 363.818 438.976 364.018 439.28 364.28C439.585 364.543 439.835 364.863 440.016 365.222C440.197 365.581 440.306 365.972 440.335 366.373C440.365 366.774 440.315 367.177 440.189 367.559C440.063 367.941 439.863 368.294 439.6 368.598C439.337 368.903 439.017 369.153 438.657 369.334V369.327Z" fill="#373E11"/>
<path d="M435.763 381.41C434.401 382.418 428.638 382.869 428.638 382.869C428.638 382.869 430.76 377.491 432.122 376.491C432.777 376.047 433.578 375.874 434.358 376.007C435.138 376.14 435.836 376.569 436.306 377.204C436.777 377.84 436.983 378.633 436.882 379.416C436.78 380.2 436.38 380.915 435.763 381.41Z" fill="#373E11"/>
<path d="M426.287 357.552C427.499 358.729 433.157 359.952 433.157 359.952C433.157 359.952 431.775 354.339 430.537 353.162C429.95 352.624 429.175 352.336 428.378 352.359C427.581 352.382 426.824 352.714 426.269 353.286C425.713 353.857 425.402 354.622 425.402 355.418C425.402 356.215 425.712 356.98 426.268 357.552H426.287Z" fill="#373E11"/>
<path d="M423.078 371.695C424.591 372.454 430.347 371.931 430.347 371.931C430.347 371.931 427.348 366.992 425.835 366.233C425.109 365.867 424.268 365.805 423.496 366.06C422.724 366.314 422.085 366.865 421.72 367.59C421.354 368.315 421.292 369.156 421.547 369.927C421.801 370.698 422.352 371.337 423.078 371.702V371.695Z" fill="#373E11"/>
<path d="M421.847 385.885C423.209 386.892 428.972 387.344 428.972 387.344C428.972 387.344 426.851 381.966 425.488 380.965C424.834 380.522 424.032 380.348 423.252 380.481C422.473 380.614 421.774 381.043 421.304 381.679C420.834 382.315 420.628 383.107 420.729 383.891C420.83 384.675 421.231 385.389 421.847 385.885Z" fill="#373E11"/>
<path d="M421.369 393.074C421.369 393.074 428.802 391.589 430.78 389.607C432.757 387.625 441.676 384.164 442.672 386.637C443.667 389.11 456.051 397.523 447.623 399.008C439.195 400.493 427.807 400.971 425.357 399.996C422.908 399.021 421.369 393.074 421.369 393.074Z" fill="#A8A8A8"/>
<path opacity="0.2" d="M447.629 398.112C439.208 399.597 427.813 400.074 425.364 399.1C423.478 398.347 422.168 394.723 421.651 393.042L421.402 393.094C421.402 393.094 422.889 399.034 425.364 400.022C427.839 401.01 439.234 400.519 447.629 399.034C450.059 398.602 450.753 397.602 450.491 396.326C450.281 397.137 449.436 397.778 447.629 398.112Z" fill="black"/>
<path d="M544.594 439.627C544.594 439.627 567.141 435.12 573.159 429.114C579.177 423.109 606.23 412.596 609.235 420.106C612.241 427.616 649.837 453.143 624.297 457.65C598.758 462.158 564.168 463.656 556.65 460.653C549.132 457.65 544.594 439.627 544.594 439.627Z" fill="#A8A8A8"/>
<path opacity="0.2" d="M624.271 454.857C598.731 459.364 564.142 460.862 556.624 457.86C550.901 455.57 546.919 444.579 545.347 439.47L544.594 439.627C544.594 439.627 549.106 457.65 556.617 460.653C564.129 463.656 598.712 462.158 624.264 457.65C631.645 456.342 633.753 453.293 632.954 449.433C632.332 451.952 629.759 453.895 624.271 454.857Z" fill="black"/>
<path d="M697.203 311.627C697.119 314.315 696.277 316.926 694.773 319.157C693.258 316.933 692.402 314.328 692.304 311.64C692.304 307.486 693.378 304.117 694.734 304.11C696.089 304.104 697.189 307.473 697.203 311.627Z" fill="#373E11"/>
<path d="M512.342 307.976C512.252 310.665 511.403 313.272 509.893 315.5C508.384 313.272 507.535 310.665 507.444 307.976C507.444 303.822 508.538 300.453 509.893 300.453C511.249 300.453 512.342 303.822 512.342 307.976Z" fill="#373E11"/>
<path d="M713.816 382.11C715.326 384.337 716.175 386.945 716.265 389.633C713.733 388.719 711.511 387.109 709.854 384.989C707.405 381.626 706.312 378.257 707.405 377.465C708.499 376.674 711.374 378.754 713.816 382.11Z" fill="#373E11"/>
<path d="M635.587 342.721C635.496 345.409 634.647 348.017 633.138 350.244C631.628 348.017 630.779 345.409 630.688 342.721C630.688 338.567 631.782 335.198 633.138 335.198C634.493 335.198 635.587 338.58 635.587 342.721Z" fill="#373E11"/>
<path d="M589.825 317.731C589.735 320.419 588.886 323.027 587.376 325.254C585.866 323.027 585.017 320.419 584.927 317.731C584.927 313.576 586.02 310.207 587.376 310.207C588.732 310.207 589.825 313.576 589.825 317.731Z" fill="#373E11"/>
<path d="M561.437 332.967C562.696 335.345 563.257 338.03 563.055 340.712C560.627 339.533 558.584 337.692 557.161 335.4C555.091 331.796 554.371 328.329 555.543 327.655C556.715 326.981 559.374 329.362 561.437 332.967Z" fill="#373E11"/>
<path d="M540.226 402.076C538.201 403.85 535.715 405.015 533.056 405.439C533.65 402.816 534.973 400.415 536.873 398.511C539.905 395.672 543.121 394.167 544.044 395.148C544.967 396.129 543.258 399.237 540.226 402.076Z" fill="#373E11"/>
<path opacity="0.1" d="M540.226 402.076C538.201 403.85 535.715 405.015 533.056 405.439C533.65 402.816 534.973 400.415 536.873 398.511C539.905 395.672 543.121 394.167 544.044 395.148C544.967 396.129 543.258 399.237 540.226 402.076Z" fill="black"/>
<path d="M584.763 397.811C582.738 399.584 580.252 400.75 577.593 401.173C578.187 398.551 579.51 396.149 581.41 394.245C584.442 391.406 587.658 389.902 588.581 390.883C589.504 391.864 587.795 394.965 584.763 397.811Z" fill="#373E11"/>
<path opacity="0.1" d="M584.763 397.811C582.738 399.584 580.252 400.75 577.593 401.173C578.187 398.551 579.51 396.149 581.41 394.245C584.442 391.406 587.658 389.902 588.581 390.883C589.504 391.864 587.795 394.965 584.763 397.811Z" fill="black"/>
<path d="M593.303 442.911C591.277 444.685 588.792 445.85 586.132 446.274C586.724 443.644 588.05 441.235 589.956 439.326C592.988 436.487 596.204 434.982 597.127 435.964C598.05 436.945 596.341 440.065 593.303 442.911Z" fill="#373E11"/>
<path opacity="0.1" d="M593.303 442.911C591.277 444.685 588.792 445.85 586.132 446.274C586.724 443.644 588.05 441.235 589.956 439.326C592.988 436.487 596.204 434.982 597.127 435.964C598.05 436.945 596.341 440.065 593.303 442.911Z" fill="black"/>
<path d="M59.2451 370.812C69.2841 385.617 66.0818 438.62 66.0818 438.62C66.0818 438.62 15.6249 421.931 5.58592 407.133C0.765449 400.024 -1.03057 391.293 0.592982 382.861C2.21653 374.428 7.12665 366.986 14.2432 362.17C21.3597 357.355 30.0996 355.56 38.5404 357.182C46.9811 358.804 54.4312 363.709 59.2517 370.819L59.2451 370.812Z" fill="#373E11"/>
<path opacity="0.1" d="M59.2451 370.812C69.2841 385.617 66.0818 438.62 66.0818 438.62C66.0818 438.62 15.6249 421.931 5.58592 407.133C0.765449 400.024 -1.03057 391.293 0.592982 382.861C2.21653 374.428 7.12665 366.986 14.2432 362.17C21.3597 357.355 30.0996 355.56 38.5404 357.182C46.9811 358.804 54.4312 363.709 59.2517 370.819L59.2451 370.812Z" fill="black"/>
<path d="M14.4331 362.203C14.4331 362.203 52.2447 391.367 66.2783 438.672" stroke="#535461" stroke-miterlimit="10"/>
<path d="M75.7999 398.485C75.7999 398.485 48.9507 393.905 67.2868 438.332C67.2868 438.332 85.9437 431.227 87.3975 413.551C87.686 410.112 86.7022 406.686 84.6325 403.923C82.5628 401.16 79.5508 399.25 76.1667 398.557L75.7999 398.485Z" fill="#373E11"/>
<path d="M76.1929 398.439C76.1929 398.439 81.3073 423.01 67.313 438.345" stroke="#535461" stroke-miterlimit="10"/>
<path d="M660.511 439.712C660.511 439.712 671.715 437.488 674.702 434.524C677.688 431.561 691.139 426.373 692.632 430.076C694.125 433.779 712.801 446.378 700.104 448.596C687.406 450.814 670.222 451.56 666.49 450.081C662.757 448.603 660.511 439.712 660.511 439.712Z" fill="#A8A8A8"/>
<path opacity="0.2" d="M700.123 447.229C687.426 449.453 670.242 450.192 666.509 448.714C663.667 447.582 661.69 442.172 660.904 439.64L660.531 439.719C660.531 439.719 662.77 448.609 666.509 450.094C670.249 451.579 687.426 450.833 700.123 448.609C703.791 447.955 704.838 446.463 704.445 444.553C704.111 445.79 702.834 446.751 700.123 447.229Z" fill="black"/>
<path d="M615.535 297.535C652.509 297.535 682.481 267.593 682.481 230.657C682.481 193.721 652.509 163.778 615.535 163.778C578.562 163.778 548.589 193.721 548.589 230.657C548.589 267.593 578.562 297.535 615.535 297.535Z" fill="#373E11"/>
<path d="M544.339 279.264C581.312 279.264 611.285 249.321 611.285 212.385C611.285 175.449 581.312 145.507 544.339 145.507C507.365 145.507 477.392 175.449 477.392 212.385C477.392 249.321 507.365 279.264 544.339 279.264Z" fill="#373E11"/>
<path d="M465.965 279.918C502.939 279.918 532.911 249.975 532.911 213.039C532.911 176.103 502.939 146.161 465.965 146.161C428.992 146.161 399.019 176.103 399.019 213.039C399.019 249.975 428.992 279.918 465.965 279.918Z" fill="#373E11"/>
<path d="M440.491 297.535C477.465 297.535 507.437 267.593 507.437 230.657C507.437 193.721 477.465 163.778 440.491 163.778C403.518 163.778 373.545 193.721 373.545 230.657C373.545 267.593 403.518 297.535 440.491 297.535Z" fill="#373E11"/>
<path d="M397.382 303.41C434.355 303.41 464.328 273.468 464.328 236.532C464.328 199.596 434.355 169.653 397.382 169.653C360.408 169.653 330.435 199.596 330.435 236.532C330.435 273.468 360.408 303.41 397.382 303.41Z" fill="#373E11"/>
<path d="M379.746 250.558C416.72 250.558 446.693 220.615 446.693 183.679C446.693 146.743 416.72 116.8 379.746 116.8C342.773 116.8 312.8 146.743 312.8 183.679C312.8 220.615 342.773 250.558 379.746 250.558Z" fill="#373E11"/>
<path d="M399.34 189.22C436.313 189.22 466.286 159.277 466.286 122.341C466.286 85.4054 436.313 55.4628 399.34 55.4628C362.366 55.4628 332.393 85.4054 332.393 122.341C332.393 159.277 362.366 189.22 399.34 189.22Z" fill="#373E11"/>
<path d="M436.569 189.22C473.542 189.22 503.515 159.277 503.515 122.341C503.515 85.4054 473.542 55.4628 436.569 55.4628C399.595 55.4628 369.622 85.4054 369.622 122.341C369.622 159.277 399.595 189.22 436.569 189.22Z" fill="#373E11"/>
<path d="M458.126 161.816C495.1 161.816 525.073 131.873 525.073 94.9371C525.073 58.0011 495.1 28.0585 458.126 28.0585C421.153 28.0585 391.18 58.0011 391.18 94.9371C391.18 131.873 421.153 161.816 458.126 161.816Z" fill="#373E11"/>
<path d="M512.991 191.83C549.964 191.83 579.937 161.888 579.937 124.952C579.937 88.0157 549.964 58.0731 512.991 58.0731C476.017 58.0731 446.044 88.0157 446.044 124.952C446.044 161.888 476.017 191.83 512.991 191.83Z" fill="#373E11"/>
<path d="M641.009 250.558C677.982 250.558 707.955 220.615 707.955 183.679C707.955 146.743 677.982 116.8 641.009 116.8C604.036 116.8 574.063 146.743 574.063 183.679C574.063 220.615 604.036 250.558 641.009 250.558Z" fill="#373E11"/>
<path d="M602.471 217.279C639.444 217.279 669.417 187.336 669.417 150.4C669.417 113.464 639.444 83.5214 602.471 83.5214C565.497 83.5214 535.524 113.464 535.524 150.4C535.524 187.336 565.497 217.279 602.471 217.279Z" fill="#373E11"/>
<path d="M577.651 184C614.625 184 644.598 154.057 644.598 117.121C644.598 80.1849 614.625 50.2424 577.651 50.2424C540.678 50.2424 510.705 80.1849 510.705 117.121C510.705 154.057 540.678 184 577.651 184Z" fill="#373E11"/>
<path d="M530.626 133.757C567.599 133.757 597.572 103.815 597.572 66.8786C597.572 29.9426 567.599 0 530.626 0C493.653 0 463.68 29.9426 463.68 66.8786C463.68 103.815 493.653 133.757 530.626 133.757Z" fill="#373E11"/>
<path d="M618.148 189.22C655.121 189.22 685.094 159.277 685.094 122.341C685.094 85.4054 655.121 55.4628 618.148 55.4628C581.175 55.4628 551.202 85.4054 551.202 122.341C551.202 159.277 581.175 189.22 618.148 189.22Z" fill="#373E11"/>
<path opacity="0.1" d="M682.187 132.815C682.187 132.815 619.838 103.278 582.111 155.627Z" fill="black"/>
<path opacity="0.1" d="M518.419 72.9757C518.419 72.9757 449.45 70.8954 435.907 133.96Z" fill="black"/>
<path opacity="0.1" d="M432.685 209.808C432.685 209.808 370.336 180.264 332.61 232.6Z" fill="black"/>
<path d="M159.812 376.523C159.812 376.523 163.407 381.22 158.149 388.299C152.89 395.377 148.555 401.383 150.29 405.805C150.29 405.805 158.221 392.63 164.697 392.446C171.174 392.263 166.911 384.446 159.812 376.523Z" fill="#373E11"/>
<path opacity="0.1" d="M159.812 376.523C160.125 376.977 160.372 377.472 160.545 377.995C166.845 385.388 170.205 392.289 164.147 392.466C158.509 392.63 151.737 402.704 150.12 405.249C150.172 405.446 150.236 405.641 150.31 405.831C150.31 405.831 158.24 392.656 164.717 392.473C171.193 392.289 166.911 384.446 159.812 376.523Z" fill="black"/>
<path d="M166.498 382.516C166.498 384.171 166.315 385.512 166.085 385.512C165.856 385.512 165.673 384.203 165.673 382.516C165.673 380.828 165.902 381.639 166.131 381.639C166.36 381.639 166.498 380.861 166.498 382.516Z" fill="#FFD037"/>
<path d="M168.79 384.485C167.336 385.276 166.066 385.754 165.961 385.551C165.856 385.348 166.943 384.544 168.397 383.752C169.851 382.96 169.275 383.536 169.386 383.752C169.497 383.968 170.244 383.719 168.79 384.485Z" fill="#FFD037"/>
<path d="M140.808 376.523C140.808 376.523 137.213 381.22 142.471 388.299C147.73 395.377 152.065 401.383 150.33 405.805C150.33 405.805 142.399 392.63 135.923 392.446C129.446 392.263 133.703 384.446 140.808 376.523Z" fill="#373E11"/>
<path opacity="0.1" d="M140.808 376.523C140.495 376.977 140.248 377.472 140.074 377.995C133.775 385.388 130.415 392.289 136.473 392.466C142.111 392.63 148.882 402.704 150.5 405.249C150.447 405.446 150.384 405.641 150.31 405.831C150.31 405.831 142.379 392.656 135.903 392.473C129.426 392.289 133.703 384.446 140.808 376.523Z" fill="black"/>
<path d="M134.122 382.516C134.122 384.171 134.305 385.512 134.534 385.512C134.764 385.512 134.947 384.203 134.947 382.516C134.947 380.828 134.718 381.639 134.488 381.639C134.259 381.639 134.122 380.861 134.122 382.516Z" fill="#FFD037"/>
<path d="M131.823 384.485C133.277 385.276 134.547 385.754 134.652 385.551C134.757 385.348 133.67 384.544 132.216 383.752C130.762 382.96 131.339 383.536 131.227 383.752C131.116 383.968 130.396 383.719 131.823 384.485Z" fill="#FFD037"/>
<path d="M135.268 405.21C135.268 405.21 145.326 404.902 148.365 402.743C151.403 400.585 163.839 398.014 164.586 401.468C165.332 404.922 179.7 418.667 168.345 418.758C156.989 418.85 141.96 416.992 138.935 415.147C135.91 413.302 135.268 405.21 135.268 405.21Z" fill="#A8A8A8"/>
<path opacity="0.2" d="M168.541 417.561C157.186 417.653 142.157 415.795 139.131 413.95C136.826 412.55 135.91 407.519 135.602 405.197H135.268C135.268 405.197 135.923 413.302 138.928 415.141C141.934 416.979 156.983 418.843 168.338 418.752C171.612 418.752 172.745 417.561 172.686 415.834C172.235 416.887 170.997 417.541 168.541 417.561Z" fill="black"/>
<path d="M78.295 469.903C79.4952 468.926 80.3699 467.607 80.8031 466.122C81.1305 464.617 80.4888 462.818 79.0481 462.269C77.4371 461.654 75.7149 462.766 74.4117 463.898C73.1085 465.03 71.6089 466.312 69.8997 466.07C70.7782 465.274 71.4354 464.265 71.8072 463.14C72.179 462.016 72.2529 460.814 72.0215 459.652C71.9476 459.171 71.7438 458.718 71.4321 458.344C70.5349 457.389 68.9174 457.801 67.8434 458.553C64.4382 460.947 63.4886 465.566 63.469 469.727C63.1285 468.229 63.4166 466.665 63.4035 465.147C63.3904 463.63 62.9713 461.876 61.6747 461.078C60.8706 460.647 59.9677 460.432 59.0552 460.457C57.5229 460.398 55.8202 460.555 54.7725 461.674C53.4627 463.06 53.8098 465.396 54.9427 466.907C56.0756 468.418 57.7914 469.393 59.3761 470.453C60.6462 471.207 61.7296 472.238 62.5456 473.469C62.6416 473.639 62.7206 473.819 62.7814 474.005H72.3751C74.5246 472.911 76.516 471.531 78.295 469.903Z" fill="#373E11"/>
<path d="M674.217 479.062C675.417 478.085 676.292 476.766 676.725 475.281C677.053 473.776 676.411 471.977 674.97 471.428C673.359 470.813 671.637 471.925 670.334 473.057C669.031 474.188 667.531 475.471 665.822 475.228C666.7 474.433 667.357 473.424 667.729 472.299C668.101 471.174 668.175 469.972 667.943 468.811C667.87 468.329 667.666 467.877 667.354 467.502C666.457 466.547 664.839 466.959 663.765 467.712C660.36 470.106 659.411 474.725 659.391 478.885C659.051 477.387 659.339 475.824 659.326 474.306C659.312 472.788 658.893 471.035 657.597 470.237C656.793 469.805 655.89 469.591 654.977 469.615C653.445 469.557 651.742 469.714 650.695 470.832C649.385 472.219 649.732 474.555 650.865 476.066C651.998 477.577 653.713 478.552 655.298 479.612C656.568 480.366 657.652 481.397 658.468 482.627C658.564 482.798 658.643 482.978 658.703 483.164H668.297C670.447 482.07 672.438 480.69 674.217 479.062Z" fill="#373E11"/>
<path d="M450.995 475.516C450.995 475.516 450.34 485.761 451.65 487.462C451.65 487.462 421.579 492.924 417.82 491.217C414.061 489.51 415.77 486.782 417.82 485.754C419.87 484.727 430.125 480.972 431.487 473.809C431.487 473.809 427.047 471.761 441.395 474.463C455.743 477.165 450.995 475.516 450.995 475.516Z" fill="#DC9BA3"/>
<path opacity="0.05" d="M450.995 475.516C450.995 475.516 450.34 485.761 451.65 487.462C451.65 487.462 421.579 492.924 417.82 491.217C414.061 489.51 415.77 486.782 417.82 485.754C419.87 484.727 430.125 480.972 431.487 473.809C431.487 473.809 427.047 471.761 441.395 474.463C455.743 477.165 450.995 475.516 450.995 475.516Z" fill="black"/>
<path d="M568.208 376.17C568.208 376.17 564.449 382.313 566.84 394.265C569.23 406.217 560.691 406.211 560.691 406.211H543.612L537.803 391.164L546.002 391.818C546.002 391.818 551.47 390.451 549.08 377.819L568.208 376.17Z" fill="#FFD2D9"/>
<path d="M516.953 361.836C519.572 370.151 522.846 380.278 524.595 385.675L525.839 389.489L537.116 377.884C537.116 377.884 536.618 376.733 535.878 375.123C534.228 371.551 531.353 365.722 529.938 365.251C529.938 365.251 545.655 364.224 550.442 367.979C555.229 371.734 553.86 357.735 553.86 357.735C553.86 357.735 544.633 357.08 541.215 355.007C537.797 352.933 519.343 350.911 519.343 350.911C519.343 350.911 513.194 349.884 516.953 361.836Z" fill="#FFD2D9"/>
<path d="M414.428 462.223L416.818 479.631L422.967 478.977C422.967 478.977 423.34 478.624 423.969 478.061C425.626 476.602 429.077 473.743 432.377 472.173C433.494 471.603 434.706 471.242 435.953 471.107L429.116 460.862C427.453 461.485 425.749 461.99 424.015 462.373C422.214 462.797 420.371 463.016 418.521 463.028C417.115 463.049 415.721 462.775 414.428 462.223Z" fill="#FFD2D9"/>
<path d="M431.513 474.496C434.591 477.224 448.598 471.421 450.995 480.299L453.195 471.879L459.973 445.973L460.903 442.407L466.548 442.165L531.333 439.405L535 439.248L536.965 439.163L534.398 437.894L517.313 429.435C517.313 429.435 511.157 429.003 502.67 427.839C489.802 426.079 471.571 422.605 461.276 416.462C444.191 406.217 437.701 440.7 437.701 440.7C437.701 440.7 435.082 449.447 433.117 458.069C432.215 461.788 431.527 465.556 431.055 469.354C430.76 471.99 430.852 473.901 431.513 474.496Z" fill="#E9E9EF"/>
<path opacity="0.05" d="M431.513 474.496C434.591 477.224 448.598 471.421 450.995 480.299L453.195 471.879L459.973 445.973L460.903 442.407L466.725 442.048L529.316 438.201L533.18 437.959L534.372 437.887L535.911 437.789L517.286 429.422C517.286 429.422 511.131 428.99 502.644 427.825C489.776 426.066 471.545 422.592 461.25 416.449C444.165 406.204 437.675 440.687 437.675 440.687C437.675 440.687 435.056 449.434 433.091 458.056C432.189 461.775 431.501 465.543 431.028 469.341C430.76 471.99 430.852 473.9 431.513 474.496Z" fill="black"/>
<path opacity="0.1" d="M424.021 462.347L430 469.354L432.384 472.147C433.501 471.577 434.713 471.216 435.96 471.081L429.123 460.836C427.46 461.459 425.755 461.964 424.021 462.347Z" fill="black"/>
<path d="M424.342 461.523L431.028 469.373L434.25 473.148V474.175C438.179 475.085 450.484 472.494 453.195 471.899L453.726 471.781C461.584 472.121 490.634 455.053 490.634 455.053C490.634 455.053 522.414 460.516 537.784 459.148C546.369 458.383 548.779 455.282 549.231 452.685C549.429 451.402 549.251 450.088 548.72 448.904L534.968 439.254L533.147 437.946L530.24 435.898C530.24 435.898 525.184 434.753 518.766 433.34C508.734 431.129 495.368 428.257 492.664 428.054C488.224 427.714 476.947 431.469 470.451 438.979C469.336 440.151 468.078 441.178 466.705 442.035L466.528 442.152C464.701 443.363 462.455 444.645 459.98 445.96C451.709 450.31 440.681 454.988 433.098 458.056C427.911 460.169 424.342 461.523 424.342 461.523Z" fill="#E9E9EF"/>
<path opacity="0.1" d="M414.428 462.223L416.818 479.631L422.967 478.977C422.967 478.977 423.34 478.624 423.969 478.061C422.607 478.061 420.361 477.701 419.889 474.882C419.889 474.882 422.26 466.606 418.521 463.041C417.114 463.058 415.72 462.779 414.428 462.223Z" fill="black"/>
<path d="M419.189 474.836C419.189 474.836 422.607 462.89 414.749 461.523L401.763 466.645L386.701 467.673C386.701 467.673 382.772 474.077 389.065 481.26C390.796 483.208 392.902 484.785 395.259 485.898C397.616 487.011 400.173 487.637 402.778 487.737L419.189 488.489L424.342 477.924C424.342 477.924 419.896 478.931 419.189 474.836Z" fill="#DC9BA3"/>
<path opacity="0.1" d="M502.65 427.838C504.373 428.342 511.498 430.455 518.793 433.353C522.399 434.742 525.912 436.361 529.31 438.201C530.017 438.6 530.691 438.999 531.327 439.398C532.99 440.375 534.48 441.622 535.734 443.088C539.951 448.537 546.146 451.475 549.231 452.672C549.429 451.389 549.251 450.075 548.72 448.891L534.968 439.241L536.932 439.156L534.365 437.887L535.904 437.789L517.28 429.422C517.28 429.422 511.137 429.003 502.65 427.838Z" fill="black"/>
<path opacity="0.1" d="M524.621 385.682L525.865 389.496L537.142 377.89C537.142 377.89 536.644 376.739 535.904 375.13C534.444 378.133 527.64 383.405 524.621 385.682Z" fill="black"/>
<path d="M565.281 391.341C565.685 390.184 565.981 388.993 566.165 387.782L580.854 392.878C580.854 392.878 590.932 400.558 589.91 417.286C589.91 417.286 577.468 412.707 571.967 418.137L571.856 419.098C570.699 428.644 566.471 437.557 559.807 444.494C557.089 447.347 554.528 450.559 553.173 453.653C553.173 453.653 543.605 450.925 537.797 443.408C531.988 435.892 504.32 428.067 504.32 428.067C504.32 428.067 519.015 428.408 521.065 423.285C523.115 418.163 529.952 407.238 527.561 398.707C525.171 390.176 523.802 387.442 523.802 387.442C523.802 387.442 537.816 377.544 536.788 374.469L545.675 384.714L549.774 386.081C549.45 386.874 549.286 387.723 549.289 388.58C549.054 397.85 562.164 400.074 565.281 391.341Z" fill="#CEDAD5"/>
<path opacity="0.1" d="M549.591 382.365C549.487 381.09 549.314 379.821 549.073 378.564L568.208 376.857C568.208 376.857 566.899 378.002 566.309 382.267C564.063 383.576 561.444 385.394 558.641 385.394C555.374 385.398 552.196 384.334 549.591 382.365Z" fill="black"/>
<path d="M558.471 384.877C566.775 384.877 573.506 378.152 573.506 369.857C573.506 361.561 566.775 354.837 558.471 354.837C550.167 354.837 543.435 361.561 543.435 369.857C543.435 378.152 550.167 384.877 558.471 384.877Z" fill="#FFD2D9"/>
<path d="M569.577 373.782H567.527V367.979L565.478 361.836C565.478 361.836 555.222 357.054 550.416 358.081L546.683 361.477C546.683 361.477 545.655 353.286 551.811 350.211C557.966 347.137 568.896 348.504 571.633 350.866C574.371 353.227 578.837 357.355 575.392 368.62L574.39 371.394C574.39 371.394 570.258 370.027 569.577 373.782Z" fill="#844F6E"/>
<g opacity="0.05">
<path d="M543.016 381.665L541.896 381.292L536.736 375.346C536.837 375.064 536.848 374.758 536.769 374.469L543.016 381.665Z" fill="black"/>
<path d="M550.206 392.682C548.746 392.06 547.512 391.005 546.672 389.659C545.832 388.313 545.427 386.742 545.511 385.159C545.511 384.956 545.511 384.766 545.511 384.583L545.616 384.707L549.715 386.074C549.391 386.868 549.227 387.717 549.23 388.574C549.189 390.005 549.526 391.422 550.206 392.682Z" fill="black"/>
<path d="M510.345 427.786C518.911 430.763 530.508 435.453 534.038 440.013L534.3 440.34C524.916 433.909 504.307 428.061 504.307 428.061C506.323 428.084 508.339 427.992 510.345 427.786Z" fill="black"/>
<path d="M549.414 450.258C550.769 447.177 553.343 443.958 556.048 441.099C562.712 434.161 566.94 425.249 568.097 415.703L568.208 414.741C573.676 409.279 586.151 413.891 586.151 413.891C586.806 403.28 582.982 396.313 580.107 392.636L580.86 392.898C580.86 392.898 590.939 400.578 589.917 417.306C589.917 417.306 577.475 412.727 571.974 418.156L571.862 419.118C570.706 428.664 566.477 437.576 559.813 444.514C557.095 447.366 554.535 450.578 553.179 453.673C553.179 453.673 544.849 451.291 539.021 444.88C542.162 447.237 545.675 449.054 549.414 450.258Z" fill="black"/>
</g>
<path d="M553.173 410.313C553.173 410.313 569.544 433.864 578.116 440.693C586.689 447.523 589.053 437.619 589.053 437.619V415.775L573.991 414.068L573.827 416.141L573.644 418.51L559.63 403.463C559.63 403.463 545.616 390.831 542.885 398.341C540.154 405.851 553.173 410.313 553.173 410.313Z" fill="#FFD2D9"/>
<path opacity="0.1" d="M573.86 416.141C575.909 417.334 578.083 418.299 580.343 419.02C583.571 420.014 587.271 418.968 589.059 418.326V415.775L573.997 414.068L573.86 416.141Z" fill="black"/>
<path d="M589.229 413.557L590.107 417.214C590.107 417.214 584.763 419.7 580.323 418.339C577.329 417.325 574.471 415.95 571.81 414.244C571.155 413.904 574.541 410.149 574.541 410.149L589.229 413.557Z" fill="#CEDAD5"/>
<path opacity="0.1" d="M490.804 455.203C488.526 453.456 485.989 452.072 483.286 451.102C480.708 450.222 478.279 448.956 476.083 447.347" fill="black"/>
<path opacity="0.2" d="M386.747 467.666L387.303 467.627C386.491 469.687 385.339 474.725 390.132 480.227C391.858 482.167 393.958 483.74 396.306 484.852C398.654 485.964 401.203 486.591 403.799 486.697L419.712 487.442L419.202 488.489L402.778 487.737C400.181 487.631 397.633 487.004 395.285 485.892C392.936 484.781 390.837 483.207 389.111 481.267C382.818 474.071 386.747 467.666 386.747 467.666Z" fill="white"/>
<path opacity="0.05" d="M444.774 482.3C444.726 482.505 444.671 482.708 444.61 482.909C444.276 482.719 443.798 482.353 444.774 482.3Z" fill="#00FF00"/>
<path opacity="0.2" d="M417.879 490.197C421.382 491.786 447.721 487.155 451.277 486.513C451.349 486.853 451.487 487.175 451.683 487.462C451.683 487.462 421.612 492.925 417.853 491.217C415.888 490.34 415.436 489.189 415.698 488.142C415.914 488.875 416.53 489.601 417.879 490.197Z" fill="white"/>
<path opacity="0.1" d="M548.916 362.68C545.219 360.447 542.217 357.231 540.246 353.391C539.969 352.968 539.855 352.459 539.925 351.958C540.167 351.029 541.379 350.866 542.256 350.467C543.887 349.721 544.574 347.85 545.642 346.397C546.558 345.202 547.788 344.284 549.195 343.745C550.601 343.205 552.13 343.066 553.612 343.342C555.17 343.656 556.611 344.428 558.196 344.651C561.588 345.148 565.281 343.094 568.326 344.651C569.715 345.364 570.658 346.705 571.483 348.026C573.559 351.343 576.158 354.869 574.272 358.742C573.192 360.966 571.463 362.811 569.034 363.459C566.604 364.107 563.795 363.564 561.319 363.302C559.289 363.079 557.154 362.648 555.111 362.831C552.701 363.079 551.202 364.054 548.916 362.68Z" fill="black"/>
<path d="M548.916 361.993C545.219 359.76 542.217 356.544 540.246 352.704C539.969 352.281 539.855 351.772 539.925 351.271C540.167 350.342 541.379 350.179 542.256 349.78C543.887 349.034 544.574 347.163 545.642 345.711C546.558 344.515 547.788 343.597 549.195 343.058C550.601 342.518 552.13 342.379 553.612 342.655C555.17 342.969 556.611 343.741 558.196 343.964C561.588 344.461 565.281 342.407 568.326 343.964C569.715 344.677 570.658 346.018 571.483 347.339C573.559 350.656 576.158 354.182 574.272 358.055C573.192 360.28 571.463 362.124 569.034 362.772C566.604 363.42 563.795 362.877 561.319 362.615C559.289 362.393 557.154 361.961 555.111 362.144C552.701 362.393 551.202 363.374 548.916 361.993Z" fill="#844F6E"/>
<path d="M267.222 443.323C267.222 450.362 267.615 455.014 267.615 455.014C267.615 455.014 277.68 455.576 277.398 464.899C277.117 474.221 316.52 476.197 316.52 476.197C316.52 476.197 316.52 476.099 316.52 475.915C316.52 475.915 316.52 475.163 316.52 473.802C320.266 474.358 324.273 474.81 326.519 474.594C326.369 475.32 326.192 476.085 326.022 476.766C325.838 476.949 322.21 480.613 322.328 484.512C322.263 486.474 323.153 488.489 326.035 490.164C334.352 495.018 360.251 492.316 360.251 492.316C364.18 489.739 365.49 487.547 365.418 485.728C365.543 483.046 362.864 481.149 360.408 479.926C358.51 478.98 356.334 478.748 354.279 479.271C351.506 479.885 348.658 480.095 345.825 479.893C345.934 479.33 346.081 478.775 346.263 478.231C348.922 478.984 350.756 479.54 350.756 479.54C350.756 479.54 364.56 472.2 358.811 460.339C357.904 458.694 356.539 457.346 354.881 456.46C359.315 448.825 363.526 439.836 363.106 433.792C362.406 423.704 342.354 425.902 334.843 427.086L320.364 412.897C320.364 402.429 320.685 390.412 319.709 387.808C317.98 383.288 318.556 383.883 317.41 381.881L317.365 381.809C316.71 380.749 314.928 379.068 314.47 379.297C314.275 377.217 314.303 375.123 314.555 373.049C318.119 371.885 321.225 369.629 323.432 366.602C325.64 363.575 326.837 359.93 326.853 356.184C326.855 353.381 326.182 350.619 324.889 348.131L325.085 348.046L323.186 338.717C323.118 338.52 323.091 338.311 323.105 338.103C323.12 337.895 323.176 337.693 323.271 337.507C323.468 337.245 323.802 337.167 324.057 336.984C324.346 336.704 324.533 336.335 324.589 335.937C324.645 335.539 324.566 335.134 324.365 334.785C324.188 334.439 323.946 334.13 323.651 333.876C322.053 332.064 318.655 332.712 316.566 332.443C313.737 332.084 310.77 331.56 308.092 332.96C307.515 333.317 306.913 333.632 306.291 333.902C305.438 334.134 304.552 334.218 303.671 334.151C302.077 334.149 300.486 334.292 298.917 334.576C296.874 333.837 294.471 334.491 292.578 335.623C290.413 336.947 288.65 338.836 287.478 341.085C286.305 343.335 285.769 345.861 285.925 348.393C286.09 349.976 286.394 351.541 286.835 353.07L290.338 366.71C290.562 367.85 291.007 368.934 291.648 369.903C291.803 370.108 291.979 370.296 292.172 370.465C292.506 370.867 292.939 371.176 293.427 371.362C293.916 371.548 294.445 371.604 294.962 371.525C295.095 371.493 295.225 371.447 295.348 371.388C295.229 372.823 294.95 374.24 294.516 375.614C290.509 376.778 284.694 380.847 277.713 392.623C268.754 407.709 267.261 429.951 267.222 443.323Z" fill="url(#paint0_linear_3_99)"/>
<path d="M302.054 462.943H341.241V434.904H302.054V462.943Z" fill="#5F5D7E"/>
<path d="M331.516 428.794C331.516 428.794 360.697 422.683 361.528 434.904C362.36 447.124 344.299 471.539 344.299 471.539L327.927 468.209L332.649 449.329C332.649 449.329 314.031 445.162 312.918 444.887C311.805 444.612 331.516 428.794 331.516 428.794Z" fill="#5F5D7E"/>
<path opacity="0.1" d="M331.516 428.794C331.516 428.794 360.697 422.683 361.528 434.904C362.36 447.124 344.299 471.539 344.299 471.539L327.927 468.209L332.649 449.329C332.649 449.329 314.031 445.162 312.918 444.887C311.805 444.612 331.516 428.794 331.516 428.794Z" fill="black"/>
<path d="M346.807 474.882C346.807 474.882 344.03 480.155 344.842 482.379C345.654 484.603 325.112 479.324 325.112 479.324C325.112 479.324 326.781 472.939 326.5 472.128C326.218 471.316 346.807 474.882 346.807 474.882Z" fill="#5F5D7E"/>
<path d="M328.739 438.79L330.783 440.635L332.092 441.825C332.092 441.825 338.765 452.652 347.377 445.992C355.988 439.333 340.691 434.348 337.632 434.093C337.019 434.003 336.437 433.766 335.935 433.403C335.433 433.04 335.027 432.56 334.751 432.006C334.282 431.19 333.942 430.308 333.743 429.389L328.739 438.79Z" fill="#FDC2CC"/>
<path opacity="0.05" d="M328.739 438.79L330.783 440.635L332.092 441.825C332.092 441.825 338.765 452.652 347.377 445.992C355.988 439.333 340.691 434.348 337.632 434.093C337.019 434.003 336.437 433.766 335.935 433.403C335.433 433.04 335.027 432.56 334.751 432.006C334.282 431.19 333.942 430.308 333.743 429.389L328.739 438.79Z" fill="black"/>
<path opacity="0.1" d="M346.807 474.882C346.807 474.882 344.03 480.155 344.842 482.379C345.654 484.603 325.112 479.324 325.112 479.324C325.112 479.324 326.781 472.939 326.5 472.128C326.218 471.316 346.807 474.882 346.807 474.882Z" fill="black"/>
<path opacity="0.1" d="M328.739 438.79L330.783 440.635C330.783 437.076 333.147 433.805 334.764 431.966C334.295 431.151 333.955 430.268 333.756 429.35L328.739 438.79Z" fill="black"/>
<path d="M316.513 410.751L335.687 429.906C335.687 429.906 329.014 435.735 330.409 441.845L316.513 426.295V410.751Z" fill="#C4C8E2"/>
<path opacity="0.1" d="M316.651 410.751V426.301L318.877 428.794L325.485 436.186L330.547 441.851C329.159 435.741 335.825 429.912 335.825 429.912L316.651 410.751Z" fill="black"/>
<path d="M316.513 383.261C316.513 383.261 316.513 389.09 311.51 387.429C306.507 385.767 310.397 453.228 310.397 453.228C310.397 453.228 324.85 442.401 322.066 434.629C319.283 426.857 318.733 421.009 318.995 413.25C319.257 405.491 316.513 383.261 316.513 383.261Z" fill="#D39999"/>
<path d="M316.232 367.718C316.232 367.718 312.06 379.101 316.232 387.71C320.403 396.319 291.491 382.987 291.491 382.987C291.491 382.987 297.882 379.932 295.662 365.219L316.232 367.718Z" fill="#FDC2CC"/>
<path opacity="0.1" d="M318.733 419.635C318.562 422.685 318.562 425.743 318.733 428.794L325.341 436.186C324.373 434.121 323.28 432.118 322.066 430.187C321.038 428.597 320.809 422.258 320.757 415.023L318.334 412.602C318.589 416.508 318.733 419.635 318.733 419.635Z" fill="black"/>
<path d="M314.411 381.757C314.103 380.298 316.513 382.496 317.286 383.772L317.325 383.844C318.438 385.806 317.882 385.231 319.552 389.673C321.222 394.115 318.995 426.308 321.516 430.233C323.219 432.983 324.706 435.862 325.963 438.842L321.516 437.174C321.516 437.174 319.846 432.176 318.74 431.064C317.633 429.951 318.183 419.681 318.183 419.681C318.183 419.681 317.351 401.913 316.513 398.027C315.852 394.9 315.066 384.825 314.411 381.757Z" fill="#C4C8E2"/>
<path opacity="0.1" d="M314.411 381.757C314.103 380.298 316.513 382.496 317.286 383.772L317.325 383.844C318.438 385.806 317.882 385.231 319.552 389.673C321.222 394.115 318.995 426.308 321.516 430.233C323.219 432.983 324.706 435.862 325.963 438.842L321.516 437.174C321.516 437.174 319.846 432.176 318.74 431.064C317.633 429.951 318.183 419.681 318.183 419.681C318.183 419.681 317.351 401.913 316.513 398.027C315.852 394.9 315.066 384.825 314.411 381.757Z" fill="black"/>
<path d="M307.895 451.004C307.895 451.004 351.804 449.335 357.363 461C362.923 472.664 349.584 479.886 349.584 479.886C349.584 479.886 330.966 474.057 326.794 474.888C322.623 475.719 307.895 472.664 307.895 472.664V451.004Z" fill="#5F5D7E"/>
<path d="M332.354 443.788C332.354 443.788 342.36 438.234 347.92 441.825C353.48 445.417 352.923 455.151 345.144 455.426C337.364 455.701 333.192 450.984 333.192 450.984L332.354 443.788Z" fill="#FDC2CC"/>
<path d="M300.947 377.989C300.947 377.989 292.054 371.878 278.99 394.344C265.925 416.809 269.265 455.419 269.265 455.419C269.265 455.419 278.99 455.975 278.715 465.134C278.44 474.293 316.513 476.256 316.513 476.256C316.513 476.256 315.957 385.191 312.067 382.705C308.177 380.219 300.947 377.989 300.947 377.989Z" fill="#C4C8E2"/>
<path opacity="0.1" d="M300.908 394.553C302.476 395.682 303.753 397.168 304.632 398.888C305.511 400.609 305.967 402.513 305.963 404.444C306.009 412.759 306.212 430.678 307.057 434.066C308.17 438.508 324.843 444.337 333.461 444.063C333.461 444.063 337.632 451.834 332.629 453.503C327.626 455.171 297.057 453.503 297.057 453.503C297.057 453.503 285.106 439.902 284.831 427.989C284.556 416.076 282.867 402.724 284.831 400.225C286.436 398.112 293.148 389.084 300.908 394.553Z" fill="black"/>
<path d="M301.465 393.441C303.041 394.568 304.325 396.054 305.21 397.777C306.095 399.5 306.555 401.409 306.553 403.345C306.599 411.66 306.802 429.579 307.646 432.967C308.76 437.409 325.432 443.238 334.05 442.963C334.05 442.963 338.222 450.735 333.219 452.403C328.215 454.072 297.647 452.403 297.647 452.403C297.647 452.403 285.695 438.803 285.42 426.89C285.145 414.977 283.456 401.625 285.42 399.126C286.992 397.026 293.704 387.972 301.465 393.441Z" fill="#C4C8E2"/>
<path d="M358.909 480.22C362.897 482.183 367.52 486.226 358.758 492.368C358.758 492.368 333.749 495.142 325.688 490.144C317.626 485.146 325.688 477.093 325.688 477.093C325.688 477.093 344.135 481.993 352.989 479.599C354.972 479.077 357.078 479.298 358.909 480.22Z" fill="#4C4C56"/>
<path opacity="0.1" d="M358.909 480.783C362.897 482.68 367.52 486.526 358.758 492.408C358.758 492.408 333.749 495.064 325.688 490.282C317.626 485.499 325.688 477.799 325.688 477.799C325.688 477.799 344.135 482.483 352.989 480.2C354.97 479.698 357.064 479.904 358.909 480.783Z" fill="black"/>
<path opacity="0.1" d="M302.198 414.218C302.198 414.218 303.586 431.711 312.761 435.597Z" fill="black"/>
<path opacity="0.1" d="M315.957 369.661C315.146 372.068 314.595 374.555 314.313 377.079C312.558 377.668 309.991 376.19 308.033 376.19C302.938 376.19 301.484 370.498 298.308 367.031C298.308 365.487 295.689 369.092 295.387 367.168L315.957 369.661Z" fill="black"/>
<path d="M291.491 358.552C291.489 360.004 291.667 361.45 292.021 362.857L292.08 363.079C293.227 367.394 295.975 371.112 299.765 373.477C303.555 375.842 308.104 376.678 312.489 375.815C316.873 374.952 320.765 372.455 323.374 368.83C325.982 365.205 327.113 360.725 326.536 356.298C325.959 351.871 323.717 347.829 320.266 344.993C316.815 342.157 312.412 340.739 307.953 341.026C303.493 341.314 299.31 343.286 296.253 346.542C293.196 349.798 291.493 354.095 291.491 358.559V358.552Z" fill="#FDC2CC"/>
<path opacity="0.1" d="M278.996 394.644C280.812 391.45 282.89 388.413 285.211 385.564C283.344 388.015 281.64 390.585 280.11 393.258C267.045 415.749 270.385 454.333 270.385 454.333C270.385 454.333 280.11 454.889 279.834 464.048C279.586 472.271 310.227 474.679 316.507 475.085C316.507 476.027 316.507 476.537 316.507 476.537C316.507 476.537 278.433 474.574 278.708 465.416C278.983 456.257 269.258 455.701 269.258 455.701C269.258 455.701 265.951 417.136 278.996 394.644Z" fill="black"/>
<path opacity="0.1" d="M293.711 338.58C295.545 337.474 297.863 336.827 299.84 337.553C301.352 337.273 302.887 337.133 304.424 337.134C305.266 337.197 306.112 337.115 306.926 336.892C307.528 336.627 308.111 336.319 308.668 335.97C311.255 334.596 314.123 335.113 316.854 335.466C319.074 335.754 322.826 334.949 324.11 337.487C324.304 337.83 324.38 338.226 324.327 338.616C324.273 339.006 324.094 339.368 323.815 339.646C323.566 339.829 323.245 339.901 323.055 340.163C322.963 340.346 322.908 340.545 322.893 340.75C322.879 340.954 322.905 341.159 322.97 341.354L324.804 350.512C323.959 350.923 323.04 351.157 322.102 351.2C321.164 351.242 320.227 351.093 319.349 350.761C318.858 350.568 318.377 350.349 317.908 350.107C316.539 350.996 315.125 350.323 313.468 350.676C312.488 350.957 311.616 351.527 310.966 352.311C309.04 354.363 307.75 356.929 307.253 359.697C307.07 360.737 306.828 362.02 305.819 362.314C305.437 362.387 305.049 362.427 304.66 362.432C302.84 362.667 302.093 364.82 300.921 366.239C299.493 367.966 296.933 369.092 296.776 371.329C296.736 371.905 296.861 372.539 296.54 373.023C296.323 373.313 296.005 373.509 295.649 373.573C295.089 373.652 294.517 373.571 294 373.339C293.483 373.108 293.043 372.735 292.729 372.264C292.119 371.309 291.698 370.245 291.491 369.131L288.105 355.72C287.679 354.222 287.383 352.689 287.221 351.14C287.069 348.657 287.592 346.178 288.735 343.967C289.877 341.756 291.596 339.895 293.711 338.58Z" fill="black"/>
<path d="M293.456 338.331C295.289 337.226 297.607 336.578 299.585 337.304C301.097 337.025 302.631 336.885 304.169 336.885C305.011 336.948 305.857 336.867 306.671 336.643C307.273 336.379 307.855 336.071 308.413 335.721C310.999 334.347 313.868 334.864 316.598 335.217C318.818 335.505 322.571 334.7 323.854 337.239C324.048 337.581 324.124 337.978 324.071 338.368C324.018 338.758 323.838 339.119 323.559 339.398C323.311 339.581 322.99 339.653 322.8 339.914C322.708 340.097 322.653 340.297 322.638 340.501C322.623 340.706 322.649 340.911 322.715 341.105L324.548 350.264C323.704 350.674 322.785 350.908 321.847 350.951C320.908 350.994 319.972 350.844 319.093 350.512C318.602 350.319 318.121 350.101 317.653 349.858C316.284 350.748 314.869 350.074 313.213 350.427C312.233 350.708 311.361 351.278 310.711 352.063C308.785 354.114 307.495 356.68 306.998 359.449C306.815 360.489 306.572 361.771 305.564 362.065C305.182 362.139 304.794 362.178 304.405 362.183C302.584 362.419 301.838 364.571 300.666 365.991C299.238 367.718 296.677 368.843 296.52 371.08C296.481 371.656 296.605 372.291 296.285 372.775C296.068 373.064 295.75 373.26 295.394 373.324C294.833 373.403 294.262 373.322 293.745 373.091C293.228 372.859 292.787 372.487 292.473 372.016C291.863 371.06 291.443 369.996 291.236 368.882L287.85 355.471C287.424 353.973 287.128 352.441 286.966 350.892C286.814 348.408 287.337 345.93 288.479 343.719C289.622 341.508 291.341 339.646 293.456 338.331Z" fill="#865A61"/>
<g clip-path="url(#clip1_3_99)">
<path d="M749.704 324.206H745.706V214.66C745.706 206.334 744.066 198.09 740.88 190.397C737.693 182.705 733.023 175.716 727.136 169.828C721.248 163.941 714.259 159.271 706.567 156.085C698.874 152.898 690.63 151.258 682.304 151.258H450.217C441.891 151.258 433.647 152.898 425.954 156.085C418.262 159.271 411.273 163.941 405.385 169.828C399.498 175.716 394.828 182.705 391.641 190.397C388.455 198.09 386.815 206.334 386.815 214.66V815.635C386.815 832.45 393.495 848.576 405.385 860.466C417.275 872.357 433.402 879.036 450.217 879.036H682.304C699.119 879.037 715.245 872.357 727.136 860.467C739.026 848.576 745.706 832.45 745.706 815.635V402.182H749.704L749.704 324.206Z" fill="#3F3D56"/>
<path d="M732.214 215.103V815.193C732.214 827.751 727.225 839.794 718.345 848.674C709.466 857.554 697.422 862.542 684.864 862.543H451.654C445.437 862.542 439.28 861.317 433.536 858.938C427.792 856.558 422.573 853.07 418.177 848.673C413.781 844.276 410.294 839.056 407.916 833.312C405.537 827.567 404.313 821.41 404.314 815.193V215.103C404.313 208.885 405.537 202.728 407.915 196.984C410.294 191.239 413.781 186.019 418.177 181.622C422.573 177.225 427.792 173.738 433.536 171.358C439.28 168.978 445.437 167.753 451.654 167.753H479.954C478.559 171.168 478.025 174.875 478.401 178.546C478.777 182.216 480.05 185.738 482.108 188.8C484.166 191.863 486.947 194.371 490.204 196.105C493.461 197.839 497.094 198.745 500.784 198.743H633.744C637.434 198.745 641.067 197.838 644.323 196.104C647.58 194.37 650.359 191.861 652.417 188.799C654.474 185.736 655.746 182.214 656.121 178.544C656.495 174.874 655.961 171.168 654.564 167.753H684.864C697.422 167.753 709.466 172.742 718.345 181.621C727.225 190.501 732.214 202.545 732.214 215.103Z" fill="white"/>
<path d="M509.724 328.943C543.966 328.943 571.724 301.184 571.724 266.943C571.724 232.701 543.966 204.943 509.724 204.943C475.483 204.943 447.724 232.701 447.724 266.943C447.724 301.184 475.483 328.943 509.724 328.943Z" fill="#FF6584"/>
<path d="M666.564 564.032C671.112 517.899 656.471 478.693 633.861 476.464C611.251 474.235 589.234 509.826 584.686 555.959C580.137 602.093 594.779 641.299 617.389 643.528C639.999 645.757 662.015 610.166 666.564 564.032Z" fill="#3F3D56"/>
<path d="M615.924 697.097C609.227 597.105 635.123 500.685 635.385 499.723L638.522 500.578C638.261 501.535 612.509 597.449 619.167 696.881L615.924 697.097Z" fill="#99AF1C"/>
<path d="M620.034 429.367C628.931 339.135 600.293 262.454 556.071 258.093C511.848 253.733 468.787 323.346 459.89 413.577C450.994 503.809 479.631 580.491 523.854 584.851C568.076 589.211 611.137 519.599 620.034 429.367Z" fill="#E6E6E6"/>
<path d="M522.539 689.523C509.458 494.207 560.039 305.875 560.551 303.996L563.687 304.85C563.176 306.725 512.739 494.552 525.782 689.307L522.539 689.523Z" fill="#3F3D56"/>
<path d="M614.518 394.726L538.291 426.317L539.535 429.32L615.762 397.729L614.518 394.726Z" fill="#3F3D56"/>
<path d="M465.305 399.604L463.497 402.306L532.074 448.195L533.882 445.493L465.305 399.604Z" fill="#3F3D56"/>
<path d="M848.873 352.64C861.048 229.165 821.86 124.232 761.345 118.266C700.83 112.299 641.904 207.558 629.729 331.033C617.555 454.508 656.743 559.441 717.258 565.408C777.773 571.374 836.699 476.115 848.873 352.64Z" fill="#99AF1C"/>
<path d="M716.057 708.603C698.164 441.428 767.353 183.808 768.054 181.237L771.19 182.092C770.491 184.658 701.445 441.772 719.3 708.387L716.057 708.603Z" fill="#3F3D56"/>
<path d="M841.554 305.79L737.244 349.019L738.488 352.022L842.799 308.793L841.554 305.79Z" fill="#3F3D56"/>
<path d="M636.806 312.41L634.998 315.112L728.841 377.905L730.649 375.203L636.806 312.41Z" fill="#3F3D56"/>
<path d="M598.427 226.426L610.84 216.498C601.197 215.434 597.234 220.693 595.613 224.856C588.079 221.728 579.877 225.828 579.877 225.828L604.714 234.844C603.461 231.498 601.28 228.578 598.427 226.426Z" fill="#3F3D56"/>
</g>
</g>
<defs>
<linearGradient id="paint0_linear_3_99" x1="365.412" y1="412.556" x2="267.222" y2="412.556" gradientUnits="userSpaceOnUse">
<stop stop-color="#808080" stop-opacity="0.25"/>
<stop offset="0.54" stop-color="#808080" stop-opacity="0.12"/>
<stop offset="1" stop-color="#808080" stop-opacity="0.1"/>
</linearGradient>
<clipPath id="clip0_3_99">
<rect width="748" height="511" fill="white"/>
</clipPath>
<clipPath id="clip1_3_99">
<rect width="938.192" height="761.036" fill="white" transform="translate(275 118)"/>
</clipPath>
</defs>
</svg>
