<svg width="804" height="641" viewBox="0 0 804 641" fill="none" xmlns="http://www.w3.org/2000/svg">
<path d="M313.149 437.491C352.888 437.491 385.103 405.335 385.103 365.67C385.103 326.004 352.888 293.849 313.149 293.849C273.409 293.849 241.194 326.004 241.194 365.67C241.194 405.335 273.409 437.491 313.149 437.491Z" fill="#E6E4BB"/>
<path opacity="0.2" d="M260.02 317.699C253.308 333.37 252.398 350.912 257.451 367.191C262.505 383.471 273.193 397.426 287.606 406.563C302.018 415.701 319.217 419.425 336.128 417.071C353.038 414.717 368.559 406.437 379.917 393.712C375.817 403.286 369.681 411.856 361.933 418.828C354.185 425.8 345.012 431.008 335.048 434.09C325.084 437.172 314.567 438.054 304.228 436.677C293.888 435.299 283.971 431.694 275.166 426.112C266.361 420.529 258.876 413.103 253.232 404.346C247.587 395.59 243.918 385.714 242.477 375.401C241.036 365.089 241.859 354.587 244.888 344.624C247.917 334.66 253.081 325.473 260.02 317.699Z" fill="black"/>
<path d="M313.347 365.669H313.544L317.103 569.293H309.591L313.347 365.669Z" fill="#291418"/>
<path d="M438.513 336.118C486.379 336.118 525.181 297.387 525.181 249.61C525.181 201.834 486.379 163.103 438.513 163.103C390.648 163.103 351.845 201.834 351.845 249.61C351.845 297.387 390.648 336.118 438.513 336.118Z" fill="#E6E4BB"/>
<path opacity="0.2" d="M502.506 191.83C510.59 210.705 511.687 231.835 505.6 251.443C499.513 271.051 486.64 287.86 469.28 298.866C451.92 309.872 431.204 314.358 410.836 311.522C390.467 308.687 371.772 298.714 358.091 283.387C363.03 294.919 370.421 305.241 379.753 313.639C389.085 322.037 400.135 328.309 412.136 332.021C424.138 335.733 436.805 336.797 449.259 335.137C461.713 333.478 473.657 329.136 484.263 322.412C494.869 315.688 503.884 306.742 510.682 296.196C517.481 285.649 521.901 273.753 523.636 261.332C525.372 248.911 524.381 236.261 520.732 224.26C517.084 212.259 510.865 201.194 502.506 191.83Z" fill="black"/>
<path d="M438.275 249.61H438.037L433.751 494.873H442.799L438.275 249.61Z" fill="#291418"/>
<path d="M403.033 494.497C403.033 494.497 403.483 485.08 412.713 486.174L403.033 494.497Z" fill="#E6E4BB"/>
<path d="M465.734 494.497C465.734 494.497 466.185 485.08 475.415 486.174L465.734 494.497Z" fill="#E6E4BB"/>
<path d="M447.478 494.497C447.478 494.497 447.928 485.08 457.158 486.174L447.478 494.497Z" fill="#E6E4BB"/>
<path d="M386.237 494.497C386.237 494.497 385.787 485.08 376.556 486.174L386.237 494.497Z" fill="#E6E4BB"/>
<path d="M425.359 495.148C425.359 495.148 424.908 485.731 415.678 486.825L425.359 495.148Z" fill="#E6E4BB"/>
<path d="M281.762 568.469C281.762 568.469 282.213 559.052 291.443 560.147L281.762 568.469Z" fill="#E6E4BB"/>
<path d="M344.464 568.469C344.464 568.469 344.914 559.052 354.145 560.147L344.464 568.469Z" fill="#E6E4BB"/>
<path d="M326.207 568.469C326.207 568.469 326.658 559.052 335.888 560.147L326.207 568.469Z" fill="#E6E4BB"/>
<path d="M264.967 568.469C264.967 568.469 264.516 559.052 255.286 560.147L264.967 568.469Z" fill="#E6E4BB"/>
<path d="M304.088 569.12C304.088 569.12 303.638 559.703 294.408 560.798L304.088 569.12Z" fill="#E6E4BB"/>
<path d="M757.532 127.03H636.873V137.762H757.532V127.03Z" fill="#E6E4BB"/>
<path d="M757.532 166.564H636.873V177.296H757.532V166.564Z" fill="#E6E4BB"/>
<path d="M757.532 201.981H636.873V212.713H757.532V201.981Z" fill="#E6E4BB"/>
<path d="M591.489 132.396C591.489 129.626 592.312 126.919 593.853 124.617C595.395 122.314 597.585 120.519 600.149 119.46C602.712 118.4 605.532 118.123 608.254 118.663C610.975 119.203 613.474 120.537 615.436 122.495C617.398 124.453 618.734 126.948 619.275 129.664C619.816 132.38 619.539 135.195 618.477 137.754C617.415 140.312 615.617 142.499 613.31 144.038C611.003 145.576 608.291 146.397 605.517 146.397C601.798 146.393 598.232 144.917 595.602 142.292C592.972 139.667 591.493 136.108 591.489 132.396Z" fill="#99AF1C"/>
<path d="M591.489 171.93C591.489 169.161 592.312 166.454 593.853 164.151C595.395 161.848 597.585 160.054 600.149 158.994C602.712 157.934 605.532 157.657 608.254 158.197C610.975 158.738 613.474 160.071 615.436 162.029C617.398 163.987 618.734 166.482 619.275 169.198C619.816 171.915 619.539 174.73 618.477 177.288C617.415 179.847 615.617 182.034 613.31 183.572C611.003 185.111 608.291 185.932 605.517 185.932C601.798 185.928 598.232 184.451 595.602 181.826C592.972 179.201 591.493 175.642 591.489 171.93Z" fill="#99AF1C"/>
<path d="M591.489 207.347C591.489 204.577 592.312 201.87 593.853 199.568C595.395 197.265 597.585 195.47 600.149 194.411C602.712 193.351 605.532 193.074 608.254 193.614C610.975 194.154 613.474 195.488 615.436 197.446C617.398 199.404 618.734 201.899 619.275 204.615C619.816 207.331 619.539 210.146 618.477 212.705C617.415 215.263 615.617 217.45 613.31 218.989C611.003 220.527 608.291 221.348 605.517 221.348C601.798 221.344 598.232 219.868 595.602 217.243C592.972 214.618 591.493 211.059 591.489 207.347Z" fill="#99AF1C"/>
<path d="M473.245 226.653L471.472 225.279L516.891 166.906H576.292V169.148H517.99L473.245 226.653Z" fill="#E6E4BB"/>
<path d="M120.659 254.8H0V265.532H120.659V254.8Z" fill="#E6E4BB"/>
<path d="M120.659 294.334H0V305.066H120.659V294.334Z" fill="#E6E4BB"/>
<path d="M120.659 329.751H0V340.483H120.659V329.751Z" fill="#E6E4BB"/>
<path d="M152.016 274.167C149.241 274.168 146.529 273.346 144.222 271.808C141.915 270.269 140.117 268.082 139.056 265.524C137.994 262.965 137.716 260.15 138.257 257.434C138.798 254.718 140.135 252.223 142.096 250.265C144.058 248.307 146.558 246.973 149.279 246.433C152 245.893 154.821 246.17 157.384 247.23C159.947 248.289 162.138 250.084 163.679 252.387C165.221 254.689 166.043 257.396 166.043 260.166C166.043 262.004 165.681 263.825 164.976 265.524C164.271 267.223 163.237 268.766 161.935 270.066C160.632 271.367 159.086 272.398 157.384 273.102C155.682 273.805 153.858 274.167 152.016 274.167Z" fill="#99AF1C"/>
<path d="M152.016 313.702C149.241 313.702 146.529 312.881 144.222 311.342C141.915 309.804 140.117 307.617 139.056 305.058C137.994 302.5 137.716 299.685 138.257 296.968C138.799 294.252 140.135 291.757 142.096 289.799C144.058 287.841 146.558 286.508 149.279 285.967C152 285.427 154.821 285.704 157.384 286.764C159.947 287.824 162.138 289.619 163.679 291.921C165.221 294.224 166.043 296.931 166.043 299.7C166.043 301.539 165.681 303.36 164.976 305.058C164.271 306.757 163.237 308.301 161.935 309.601C160.632 310.901 159.086 311.932 157.384 312.636C155.682 313.34 153.858 313.702 152.016 313.702Z" fill="#99AF1C"/>
<path d="M152.016 349.118C149.241 349.118 146.529 348.297 144.222 346.759C141.915 345.22 140.117 343.033 139.056 340.475C137.994 337.916 137.716 335.101 138.257 332.385C138.799 329.669 140.135 327.174 142.096 325.216C144.058 323.258 146.558 321.924 149.279 321.384C152 320.844 154.821 321.121 157.384 322.181C159.947 323.24 162.138 325.035 163.679 327.338C165.221 329.64 166.043 332.347 166.043 335.117C166.043 336.955 165.681 338.776 164.976 340.475C164.271 342.174 163.237 343.717 161.935 345.017C160.632 346.318 159.086 347.349 157.384 348.053C155.682 348.756 153.858 349.118 152.016 349.118Z" fill="#99AF1C"/>
<path d="M284.288 354.423L239.541 296.918H181.241V294.676H240.641L240.978 295.11L286.061 353.049L284.288 354.423Z" fill="#E6E4BB"/>
</svg>
